<?xml version="1.0" encoding="utf-8"?>
<!-- Generator: Adobe Illustrator 26.0.3, SVG Export Plug-In . SVG Version: 6.00 Build 0)  -->
<svg version="1.1" id="Calque_1" xmlns="http://www.w3.org/2000/svg" xmlns:xlink="http://www.w3.org/1999/xlink" x="0px" y="0px"
	 viewBox="0 0 1366 768" style="enable-background:new 0 0 1366 768;" xml:space="preserve">
<style type="text/css">
	.st0{fill:#FACBB6;}
</style>
<g>
	<path class="st0" d="M384.06,40.6v217.78H0.43V44.08c74.61-32.71,125.61,17.71,184.02,49.87C250.5,112.84,330.82,71.69,384.06,40.6
		z"/>
	<path class="st0" d="M723.63,258.35H384.06V40.78c74.47-33.28,126,18.2,184.02,50.64c49.44,16.07,112.71-9.19,155.92-29.83"/>
</g>
<g>
	<path class="st0" d="M340.04,713.18V495.4h383.63v214.29c-74.61,32.71-125.61-17.71-184.02-49.87
		C473.6,640.93,393.28,682.08,340.04,713.18z"/>
	<path class="st0" d="M0.47,495.43h339.58V713c-74.47,33.28-126-18.2-184.02-50.64c-49.44-16.07-112.71,9.19-155.92,29.83"/>
</g>
<g>
	<path class="st0" d="M1103.15,60.82V278.6H719.63V64.31c74.59-32.71,125.57,17.71,183.97,49.87
		C969.63,133.07,1049.93,91.92,1103.15,60.82z"/>
	<path class="st0" d="M1366,278.29l-262.85,0.28V61c74.45-33.28,125.97,18.2,183.97,50.64c24.05,7.82,51.38,5.85,78.08-0.61"/>
	<path class="st0" d="M1379.16,391.29"/>
</g>
<g>
	<path class="st0" d="M1366.2,736.77c-37.92-9.81-71.28-36.78-107.5-56.73c-66.03-18.89-146.33,22.26-199.55,53.36V515.62h306.05"/>
	<path class="st0" d="M719.67,515.65h339.49v217.57c-74.45,33.28-125.97-18.2-183.97-50.64c-49.43-16.07-112.68,9.19-155.88,29.83"
		/>
</g>
<rect y="190" class="st0" width="1366" height="436"/>
</svg>
