<?xml version="1.0" encoding="utf-8"?>
<!-- Generator: Adobe Illustrator 26.0.3, SVG Export Plug-In . SVG Version: 6.00 Build 0)  -->
<svg version="1.1" id="Calque_1" xmlns="http://www.w3.org/2000/svg" xmlns:xlink="http://www.w3.org/1999/xlink" x="0px" y="0px"
	 viewBox="0 0 1920 1080" style="enable-background:new 0 0 1920 1080;" xml:space="preserve">
<style type="text/css">
	.st0{display:none;}
	.st1{display:inline;}
	.st2{fill:#FFFFFF;}
	.st3{fill:none;}
	.st4{fill-rule:evenodd;clip-rule:evenodd;fill:#1D1D1B;}
	.st5{fill:#197A7F;}
	.st6{fill:#E6E6E6;}
	.st7{fill:#C8C7C7;}
	.st8{fill:#D3D3D4;}
	.st9{fill:#D2D1D1;}
	.st10{fill:url(#SVGID_1_);}
	.st11{fill:#BEE2E7;}
	.st12{fill:#BBBABA;}
	.st13{font-family:'ArialMT';}
	.st14{font-size:53px;}
	.st15{letter-spacing:10;}
	.st16{letter-spacing:19;}
	.st17{letter-spacing:14;}
	.st18{font-family:'NotoSerif-Bold';}
	.st19{font-size:48.7798px;}
	.st20{font-size:34px;}
	.st21{letter-spacing:25;}
	.st22{letter-spacing:119;}
	.st23{letter-spacing:2;}
	.st24{letter-spacing:153;}
	.st25{font-size:43.7756px;}
	.st26{letter-spacing:32.2;}
	.st27{letter-spacing:187;}
</style>
<g id="Calque_2_00000161604679522868099560000001686194090097356934_" class="st0">
	<g class="st1">
		<path class="st2" d="M-0.7,926c81.1,13.5,173.5,24.2,275.7,28c110.7,4.1,85.6-5.3,338.8-13c150-4.6,212.8-2.9,274.4-39
			c13.2-7.7,52.2-31.2,71.3-71c21-43.7,0-69.9-23.3-162c-17.3-68.4-4.4-48.7-27.4-159c-16.1-77.2-26-104-15.1-149
			c3.6-14.9,12.7-52.3,42.5-86c20.2-22.8,71.4-68.2,279.8-101c171.9-27.1,231.8-5.9,399.2-20c126.5-10.6,230.2-33.1,304.5-53"/>
		<g>
			<g>
				<g>
					<g>
						<g>
							<path class="st3" d="M-13,999.9c46.3,7.7,92.9,14,139.7,18.8L142,869.5C98.4,865,54.9,859.2,11.7,852L-13,999.9z"/>
						</g>
						<polygon class="st4" points="99.8,935 98,949.8 110.6,951.3 123.3,952.7 124.9,937.8 112.3,936.4 						"/>
						<path class="st4" d="M55,929.1L52.9,944c8.4,1.2,16.8,2.3,25.2,3.4l1.9-14.9C71.6,931.4,63.3,930.3,55,929.1z"/>
						<path class="st4" d="M10.4,922.4L8,937.2c4.2,0.7,8.4,1.3,12.5,2s8.4,1.3,12.6,1.9l2.2-14.8c-4.2-0.6-8.3-1.3-12.5-1.9
							C18.7,923.7,14.5,923.1,10.4,922.4z"/>
					</g>
				</g>
				<g>
					<g>
						<g>
							<path class="st3" d="M126.7,1018.7c46.7,4.8,93.6,8.1,140.5,10l5.9-149.9c-43.8-1.7-87.5-4.8-131.1-9.3L126.7,1018.7z"/>
						</g>
						<path class="st4" d="M235.1,946.8l-0.8,15c8.4,0.5,16.9,0.9,25.4,1.3l0.7-15C251.9,947.7,243.5,947.2,235.1,946.8z"/>
						<path class="st4" d="M190,943.8l-1.1,15c8.4,0.7,16.9,1.2,25.3,1.8l1-15C206.8,945,198.4,944.5,190,943.8z"/>
						<path class="st4" d="M145.1,939.9l-1.5,14.9l12.6,1.2c4.2,0.4,8.4,0.8,12.6,1.1l1.3-14.9c-4.2-0.3-8.4-0.7-12.6-1.1
							L145.1,939.9z"/>
					</g>
				</g>
				<g>
					<g>
						<g>
							<path class="st3" d="M267.2,1028.7c5.8,0.3,11.8,0.4,17.7,0.6c3,0.1,5.9,0.2,8.9,0.3l9.1,0.2c3,0.1,6,0.1,9.1,0.2l9.3,0
								l4.6,0l4.7-0.1l9.4-0.1c3.1-0.1,6.3-0.2,9.4-0.3c3.1-0.1,6.3-0.2,9.4-0.4l9.3-0.5l9-0.6l8.8-0.6l8.7-0.6l17-1.2L400.9,876
								l-17,1.2l-8.3,0.6l-8.1,0.5l-8,0.5l-7.7,0.4c-2.6,0.2-5.1,0.2-7.6,0.3l-7.6,0.2l-7.6,0.1l-3.8,0l-3.9,0l-7.8,0
								c-2.6,0-5.3-0.1-7.9-0.1l-8-0.2c-2.7,0-5.4-0.2-8.1-0.2c-5.4-0.2-10.8-0.3-16.3-0.6L267.2,1028.7z"/>
						</g>
						<path class="st4" d="M370.6,948l0.9,15c4.2-0.3,8.5-0.5,12.7-0.8l12.6-0.9l-1.1-15C387.4,946.8,379,947.5,370.6,948z"/>
						<polygon class="st4" points="325.6,949.6 325.7,964.6 338.5,964.5 351.3,964 350.7,949 338.2,949.5 						"/>
						<polygon class="st4" points="280.6,948.8 280.1,963.8 292.8,964.2 305.6,964.5 305.8,949.5 293.2,949.2 						"/>
					</g>
				</g>
				<g>
					<g>
						<g>
							<path class="st3" d="M411.5,1025.6l16.7-1.2l16.6-1.1c5.5-0.4,11.1-0.7,16.6-1c5.6-0.3,11.1-0.7,16.7-0.9
								c22.3-1.2,44.6-2.2,67-3.1l-6-149.9c-23,0.9-46,2-69,3.2c-5.8,0.3-11.5,0.7-17.3,1c-5.8,0.3-11.6,0.7-17.3,1l-17.3,1.1
								l-17.2,1.2L411.5,1025.6z"/>
						</g>
						<polygon class="st4" points="506.7,939.7 507.4,954.7 532.6,953.5 531.9,938.6 						"/>
						<path class="st4" d="M461.3,942l0.9,15c8.4-0.5,16.8-0.9,25.2-1.3l-0.8-15C478.2,941.1,469.8,941.5,461.3,942z"/>
						<polygon class="st4" points="416.1,944.8 417.2,959.8 442.3,958.1 441.4,943.2 						"/>
					</g>
				</g>
				<g>
					<g>
						<g>
							<path class="st3" d="M545.2,1018.4c11.2-0.4,22.4-0.9,33.7-1.3l33.7-1.1l68-2l-4.5-149.9l-68.1,2l-34.3,1.1
								c-11.4,0.4-22.9,0.9-34.4,1.3L545.2,1018.4z"/>
						</g>
						
							<rect x="643.1" y="934.5" transform="matrix(0.9996 -2.839991e-02 2.839991e-02 0.9996 -26.4872 19.0018)" class="st4" width="25.3" height="15"/>
						<polygon class="st4" points="597.5,936.2 598,951.2 623.3,950.4 622.8,935.4 						"/>
						<path class="st4" d="M552.3,937.8l0.6,15c8.4-0.3,16.8-0.7,25.2-0.9l-0.5-15C569.2,937.1,560.8,937.5,552.3,937.8z"/>
					</g>
				</g>
				<g>
					<g>
						<g>
							<path class="st3" d="M680.6,1014c22.9-0.7,46-1.4,70.3-2.8c12.1-0.7,24.5-1.6,37.2-3l4.8-0.5l4.9-0.6l9.8-1.2l2.5-0.3
								l2.5-0.4l5.1-0.8l10.2-1.7l-27.7-147.4c-17.1,3.2-37.2,5-58.3,6.3c-21.1,1.3-43.4,2-65.8,2.7L680.6,1014z"/>
						</g>
						<path class="st4" d="M778.5,928.5l1.5,14.9c2.1-0.2,4.3-0.4,6.4-0.7l6.4-0.8c4.3-0.5,8.5-1,12.8-1.8l-2.3-14.8
							c-4.1,0.7-8.2,1.2-12.3,1.7l-6.2,0.8C782.7,928.1,780.6,928.3,778.5,928.5z"/>
						<path class="st4" d="M733.6,931.7l0.7,15c8.5-0.5,17-0.9,25.5-1.5l-1.1-15C750.3,930.9,741.9,931.3,733.6,931.7z"/>
						<polygon class="st4" points="688.5,933.5 689,948.5 714.3,947.6 713.7,932.6 						"/>
					</g>
				</g>
				<g>
					<g>
						<g>
							<path class="st3" d="M827.9,1002.6l10.5-2.2l5.2-1.1l1.3-0.3l1.3-0.3l2.7-0.7l10.7-2.9c1.8-0.5,3.6-1,5.4-1.6l5.4-1.8
								l5.4-1.8c0.9-0.3,1.8-0.6,2.7-0.9l2.7-1l10.8-4.3l2.7-1.1l2.6-1.2l5.2-2.4l5.2-2.5l2.6-1.2c0.8-0.4,1.7-0.9,2.5-1.3l10-5.5
								c3.5-1.9,6.1-3.5,9.3-5.4c6.2-3.8,12.5-8,18.7-12.4c12.4-8.9,24.5-18.8,36-30.6L879.7,815.2c-4.3,4.5-9.8,9.1-15.9,13.4
								c-3.1,2.2-6.2,4.3-9.7,6.4c-1.6,1-4,2.4-5.4,3.1c-1.7,0.9-3.3,1.8-4.9,2.7c-0.4,0.2-0.8,0.5-1.2,0.7l-1.2,0.6l-2.5,1.2
								l-2.5,1.2l-1.2,0.6l-1.3,0.5c-1.7,0.7-3.4,1.3-5.1,2l-1.3,0.5c-0.4,0.2-0.9,0.3-1.3,0.4l-2.7,0.9l-2.7,0.9
								c-0.9,0.3-1.8,0.6-2.8,0.8l-5.7,1.5l-1.4,0.4l-0.7,0.2l-0.8,0.2l-3.1,0.6l-6.2,1.3L827.9,1002.6z"/>
						</g>
						<path class="st4" d="M903.3,886l8.6,12.3c7.2-5.1,14.1-10.6,20.7-16.5l-10.1-11.1C916.5,876.2,910,881.3,903.3,886z"/>
						<path class="st4" d="M864.9,908l6.1,13.7l6-2.8c2-1,4-1.8,5.9-2.9c3.8-2.1,7.8-4.2,11.5-6.4l-7.6-12.9c-3.6,2.1-7.2,4-10.8,6
							c-1.8,1-3.7,1.8-5.5,2.7L864.9,908z"/>
						<path class="st4" d="M823,921.6l3.3,14.6l3.2-0.7c1.1-0.2,2.1-0.5,3.2-0.8l6.3-1.7c4.2-1,8.4-2.5,12.6-3.9l-4.8-14.2
							c-3.9,1.2-7.8,2.7-11.8,3.6l-6,1.6c-1,0.3-2,0.5-3,0.8L823,921.6z"/>
					</g>
				</g>
				<g>
					<g>
						<g>
							<path class="st3" d="M986.9,920c11.5-11.7,22.3-25.2,31.6-40.7c2.4-3.8,4.5-7.9,6.6-12c1.1-2,2.1-4.1,3.1-6.3
								c1-2.2,2-4.3,2.9-6.7c0.9-2.3,1.9-4.6,2.8-7.1c0.9-2.5,1.8-4.9,2.5-7.6l1.2-3.9c0.4-1.3,0.7-2.7,1.1-4.1l1-4.1l0.8-4.2
								c0.6-2.8,1-5.6,1.3-8.4c0.4-2.8,0.6-5.6,0.9-8.5c0.2-2.8,0.3-5.7,0.4-8.5c0-2.8,0-5.4-0.1-8.2c-0.4-10.6-1.7-20.1-3.3-28.3
								c-1.6-8.3-3.4-15.5-5.2-22.2c-1.8-6.6-3.6-12.6-5.3-18.4l-143.6,43.3c1.5,5.1,3,10,4.2,14.3c1.2,4.3,2.1,8.1,2.6,11
								c0.5,2.9,0.7,4.7,0.8,5.4c0,0.1,0,0.3,0,0.4c0,0,0,0,0,0s0,0,0,0c0,0,0,0,0,0h0c0,0,0,0,0,0c0,0,0,0,0,0c0,0,0,0.1-0.1,0.2
								c0,0.1-0.1,0.3-0.2,0.5c0,0.2-0.2,0.5-0.3,0.8c-0.1,0.3-0.3,0.7-0.5,1.1c-0.1,0.4-0.4,0.9-0.7,1.3c-0.5,0.9-0.9,1.9-1.6,2.9
								c-2.4,4-5.8,8.4-10.2,12.9L986.9,920z"/>
						</g>
						<path class="st4" d="M961.2,777.8l14.8-2.7c-1.6-8.8-3.9-17.3-6.3-25.5l-14.4,4.2C957.6,761.8,959.7,769.8,961.2,777.8z"/>
						<path class="st4" d="M958.5,819.7l14.1,5.1c1.6-4.4,2.9-9,3.8-13.7c0.9-4.7,1.4-9.4,1.5-14.2l-15-0.3c0,3.9-0.5,7.8-1.2,11.7
							C961,812.2,959.9,816,958.5,819.7z"/>
						<path class="st4" d="M936.3,856.5l11.4,9.8c0.7-0.8,1.5-1.7,2.2-2.5l2.1-2.7c1.4-1.8,2.8-3.5,4.1-5.4c1.3-1.9,2.6-3.7,3.9-5.6
							l3.5-5.8l-13-7.5l-3.2,5.2c-1.1,1.7-2.3,3.3-3.5,5c-1.1,1.7-2.4,3.2-3.7,4.8l-1.9,2.4L936.3,856.5z"/>
					</g>
				</g>
				<g>
					<g>
						<g>
							<path class="st3" d="M1029.3,721c-3.5-11.5-6.7-21.9-9.8-32.2c-3-10.3-5.9-20.4-8.6-30.5l-2-7.6l-1.8-7.5l-0.9-3.7l-0.8-3.6
								c-0.5-2.4-1.1-4.8-1.5-7c-0.4-2.2-1-4.6-1.3-6.6l-0.6-3.2c-0.2-1.1-0.3-2-0.5-3.1c-0.2-1-0.3-2-0.5-3.1l-0.4-3.2
								c-0.1-1-0.3-2.3-0.4-3.5l-0.4-3.7l-149.1,15.9l0.5,4.8c0.2,1.7,0.3,3.2,0.6,5l0.7,5.3c0.2,1.8,0.5,3.6,0.8,5.3
								c0.3,1.8,0.5,3.6,0.9,5.3l0.9,5.2c0.6,3.6,1.3,6.8,2,10.1c0.7,3.4,1.4,6.5,2.1,9.6l1.1,4.7l1.1,4.5l2.2,9l2.3,8.9
								c3.1,11.8,6.4,23.5,9.8,35c3.4,11.5,6.9,22.7,10,33L1029.3,721z"/>
						</g>
						<path class="st4" d="M925.5,646.5l14.7-3.1c-1.7-8.1-3.1-16-4.2-24.1l-14.9,1.9C922.2,629.7,923.8,638.2,925.5,646.5z"/>
						<path class="st4" d="M936.6,690.8l14.5-4c-2.2-8-4.4-16.1-6.3-24.2l-14.6,3.6C932.2,674.5,934.3,682.7,936.6,690.8z"/>
						<path class="st4" d="M949.4,734.3l14.3-4.4c-2.5-8.1-4.9-16.1-7.3-24.1l-14.4,4.2C944.5,718.2,947,726.3,949.4,734.3z"/>
					</g>
				</g>
				<g>
					<g>
						<g>
							<path class="st3" d="M999.8,602.6l-0.9-8.5l-0.5-4.6l-0.5-4.8c-0.3-3.2-0.8-6.3-1.2-9.5c-0.4-3.2-0.9-6.3-1.3-9.5
								c-0.9-6.3-2-12.3-3-18.5l-1.6-9c-0.5-3-1.1-6-1.6-8.9c-1.1-5.8-2.2-11.8-3.4-17.6l-3.5-17.3c-2.4-11.4-4.9-22.9-7.3-34
								l-146.5,32c2.4,11.1,4.7,21.8,7,32.6l3.3,16c1.1,5.3,2,10.6,3.1,15.9c0.5,2.7,1,5.2,1.4,7.8l1.4,7.8c0.8,5,1.7,10.2,2.4,15.1
								c0.4,2.5,0.8,5,1,7.4c0.3,2.5,0.7,4.9,0.9,7.4l0.4,3.7l0.4,3.9l0.9,8.4L999.8,602.6z"/>
						</g>
						<path class="st4" d="M903.9,512.1l14.7-3c-1.7-8.3-3.5-16.6-5.3-24.8l-14.7,3.2C900.4,495.7,902.1,503.9,903.9,512.1z"/>
						<path class="st4" d="M912.5,556.5l14.8-2.6c-0.8-4.2-1.5-8.4-2.3-12.5l-2.4-12.5l-14.7,2.9l2.4,12.4
							C911,548.2,911.7,552.4,912.5,556.5z"/>
						<path class="st4" d="M918.9,600.9l14.9-1.6c-0.9-8.5-2-17-3.3-25.5l-14.8,2.2C916.9,584.3,918,592.5,918.9,600.9z"/>
					</g>
				</g>
				<g>
					<g>
						<g>
							<path class="st3" d="M974.9,460.5l-3.5-16.4l-1.7-7.8l-1.5-7.5c-1.9-9.8-3.3-18.4-3.8-24.9l-0.1-1.3l0-1.1l-0.1-2.2l0-0.6
								l0-0.5l0-1c0-0.7,0-1.4,0-2.1c0.1-1.3,0.2-2.6,0.3-4c0.1-0.7,0.2-1.4,0.2-2.1c0.1-0.7,0.1-1.4,0.3-2.1l0.4-2.2l0.2-1.1
								l0.3-1.2l0.5-2.5l0.3-1.2l0.5-1.8l0.8-3.3l0.8-2.9l0.8-2.8l0.8-2.7l-143-45.2c-0.6,1.8-1.1,3.6-1.7,5.5l-1.5,5.4l-1.4,5.3
								l-1.2,5l-0.6,2.3l-0.7,2.9l-1.3,5.8l-0.6,2.9l-0.5,3.1l-1,6.2c-0.4,2-0.6,4.2-0.9,6.3l-0.7,6.4c-0.4,4.3-0.6,8.7-0.8,13
								l-0.1,6.5l0,3.2v1.6l0,1.6l0.2,6.2l0.1,3.1l0.2,3c0.3,3.9,0.6,8,1.1,11.7l0.7,5.6c0.2,1.9,0.5,3.5,0.8,5.3
								c0.5,3.5,1.1,7,1.7,10.2l0.9,4.9l0.5,2.4l0.5,2.3l1.8,9.2l1.9,8.8l3.7,16.9L974.9,460.5z"/>
						</g>
						<path class="st4" d="M885.4,376.1l14.8,2.1l1-5.9c0.2-1,0.3-2,0.6-2.9l0.6-2.9l0.6-2.9l0.7-3c0.5-2,1-4,1.5-5.9l-14.5-3.9
							c-0.6,2.1-1.1,4.2-1.6,6.2l-0.8,3.1l-0.7,3.2l-0.7,3.2c-0.2,1.1-0.5,2.1-0.6,3.2L885.4,376.1z"/>
						<path class="st4" d="M885.7,422.7l14.9-2c-1.1-8-1.7-16-1.7-23.8l-15-0.1C883.9,405.5,884.5,414.2,885.7,422.7z"/>
						<path class="st4" d="M894.3,467.5l14.7-3.2c-1.8-8.2-3.5-16.4-5.1-24.5l-14.7,2.8C890.7,451,892.5,459.3,894.3,467.5z"/>
					</g>
				</g>
				<g>
					<g>
						<g>
							<path class="st3" d="M970.3,365.1c4.5-14.1,10.8-26.2,18.7-36.2c0.5-0.7,1-1.2,1.5-1.8l1.5-1.8l0.4-0.5
								c0.1-0.1,0.2-0.2,0.4-0.4l0.7-0.8c0.5-0.5,0.9-1.1,1.4-1.5c0.9-0.8,1.7-1.8,2.8-2.6c1-0.9,1.9-1.8,3.2-2.6l1.8-1.4l0.9-0.7
								c0.3-0.2,0.7-0.5,1-0.7c1.4-0.9,2.8-1.9,4.2-2.9l4.8-2.9l2.4-1.5l2.7-1.4l-72.1-131.5l-4.8,2.6l-4.9,2.9
								c-3.3,2-6.5,3.9-9.8,6c-3.3,2.2-6.6,4.5-9.9,6.8c-0.8,0.6-1.6,1.1-2.5,1.7l-2.5,1.9l-5,3.9c-3.3,2.5-6.6,5.5-9.8,8.3
								c-3.3,2.8-6.4,6-9.6,9.1c-1.6,1.6-3,3.1-4.5,4.7c-1.4,1.6-3,3.2-4.2,4.7l-4,4.7c-1.3,1.6-2.7,3.1-3.9,4.8
								c-10.1,12.8-18.8,26.5-26.1,40.7c-7.3,14.1-13.2,28.7-17.8,43.3L970.3,365.1z"/>
						</g>
						<polygon class="st4" points="949.6,254.9 959,266.6 963.7,262.9 964.9,262 966.1,261.2 968.6,259.5 973.5,256.1 978.7,253 
							971,240.1 965.4,243.5 960.1,247.1 957.4,249 956,249.9 954.8,250.9 						"/>
						<path class="st4" d="M918.3,289.6l12.4,8.4c4.4-6.6,9.5-12.8,14.8-18.7l-11-10.2C928.6,275.6,923.1,282.4,918.3,289.6z"/>
						<path class="st4" d="M897.2,330.9l14.1,5.2c2.8-7.5,6-14.9,9.8-21.9l-13.3-7C903.7,314.8,900.2,322.8,897.2,330.9z"/>
					</g>
				</g>
				<g>
					<g>
						<g>
							<path class="st3" d="M1018.5,305.4l5.4-2.9c0.9-0.5,1.9-1,2.9-1.4l3-1.4l5.9-2.8l6.4-2.6l6.4-2.7c1-0.5,2.2-0.9,3.3-1.3
								l3.4-1.2l6.8-2.5l3.4-1.2c1.2-0.4,2.4-0.8,3.6-1.1l14.2-4.6c1.2-0.4,2.4-0.8,3.6-1.1l3.7-1l7.4-2.1l7.4-2.1
								c2.4-0.7,5-1.3,7.6-1.9l15.2-3.8L1093,121.6l-17.8,4.5c-3,0.8-5.9,1.4-8.9,2.3l-9,2.6l-9,2.6l-4.5,1.3
								c-1.5,0.4-3,0.9-4.5,1.4l-18.2,5.9c-1.5,0.5-3,1-4.5,1.5l-4.6,1.7l-9.2,3.4l-4.6,1.7c-1.5,0.6-3,1.1-4.6,1.8l-9.3,3.9
								c-3.1,1.3-6.2,2.6-9.3,3.9l-9.5,4.4l-4.7,2.2c-1.6,0.8-3.1,1.4-4.8,2.3l-9.6,5.1L1018.5,305.4z"/>
						</g>
						<path class="st4" d="M1074.9,198.4l4.1,14.4c4-1.1,8-2.3,12-3.4l12.1-3.1l-3.7-14.6l-12.3,3.1
							C1083.1,196,1079,197.2,1074.9,198.4z"/>
						<path class="st4" d="M1031.4,212.3l5.1,14.1c7.7-3,15.7-5.4,23.5-8l-4.5-14.3C1047.4,206.8,1039.3,209.2,1031.4,212.3z"/>
						<path class="st4" d="M989.2,230.1l6.7,13.4l11.1-5.2c0.9-0.4,1.8-0.9,2.8-1.3l2.8-1.2l5.7-2.4l-5.7-13.9l-5.9,2.4l-3,1.2
							c-1,0.4-1.9,0.9-2.9,1.4L989.2,230.1z"/>
					</g>
				</g>
				<g>
					<g>
						<g>
							<path class="st3" d="M1128.1,267.5l3.8-1l3.9-0.9l7.8-1.7l15.5-3.4l31.6-6.1c10.6-1.9,21.4-3.6,32-5.4c5.3-1,10.7-1.6,16-2.4
								l15.9-2.3l-20.3-148.6l-17.8,2.6c-5.9,0.9-11.9,1.7-17.7,2.7c-11.7,2-23.4,3.9-35.1,6c-11.8,2.3-23.5,4.5-35.3,6.9l-17.7,3.9
								l-8.9,2l-4.4,1l-4.5,1.1L1128.1,267.5z"/>
						</g>
						<polygon class="st4" points="1208.6,169.8 1211,184.6 1217.2,183.6 1223.4,182.7 1235.8,180.9 1233.7,166 1221.2,167.9 
							1214.9,168.8 						"/>
						<path class="st4" d="M1163.8,177.8l2.8,14.7l12.3-2.4c4.1-0.8,8.3-1.4,12.4-2.1l-2.6-14.8c-4.2,0.7-8.3,1.4-12.5,2.1
							L1163.8,177.8z"/>
						<polygon class="st4" points="1119.4,187 1122.8,201.6 1147.2,196.2 1144.2,181.6 						"/>
					</g>
				</g>
				<g>
					<g>
						<g>
							<path class="st3" d="M1254.6,244.1c2.7-0.4,5.3-0.7,7.9-1l7.9-1c5.3-0.6,10.6-1.4,15.9-1.9l15.8-1.6c2.6-0.2,5.3-0.6,7.9-0.8
								l7.9-0.6c5.3-0.4,10.5-0.8,15.8-1.1l15.8-0.8c5.3-0.3,10.6-0.4,15.9-0.6c5.3-0.2,10.6-0.4,16-0.4l-2.7-150
								c-5.9,0.1-12,0.3-18,0.4c-6,0.2-12,0.3-18.1,0.7l-18.2,0.9c-6.1,0.4-12.1,0.9-18.2,1.3l-9.1,0.7c-3,0.2-6,0.6-9,0.9
								l-18.1,1.8c-6,0.6-12,1.4-17.9,2.1l-9,1.1c-3,0.4-6,0.7-8.9,1.2L1254.6,244.1z"/>
						</g>
						<polygon class="st4" points="1344.6,155.2 1345.3,170.2 1351.5,169.8 1357.8,169.6 1370.3,169.2 1369.9,154.2 1357.3,154.6 
							1350.9,154.9 						"/>
						<path class="st4" d="M1299.1,158.3l1.3,14.9c2.1-0.2,4.2-0.4,6.2-0.5l6.2-0.5l12.5-0.9l-1-15l-12.7,0.9l-6.3,0.5
							C1303.3,157.9,1301.2,158,1299.1,158.3z"/>
						<path class="st4" d="M1254,163.2l1.9,14.9l12.4-1.5c4.2-0.5,8.3-1.1,12.5-1.4l-1.6-14.9c-4.2,0.4-8.4,0.9-12.6,1.4L1254,163.2
							z"/>
					</g>
				</g>
				<g>
					<g>
						<g>
							<path class="st3" d="M1381.5,234.3c21.4-0.4,43.5-0.2,66.3-0.1l34.6,0.1l17.6-0.1c2.9,0,5.9,0,8.8-0.1l8.9-0.2l-2.9-150
								l-8.1,0.2c-2.7,0.1-5.5,0.1-8.2,0.1l-16.4,0.1l-33.5-0.1c-22.6-0.1-45.9-0.4-69.9,0.1L1381.5,234.3z"/>
						</g>
						<polygon class="st4" points="1481,154.1 1481,169.1 1506.4,168.9 1506.2,153.9 						"/>
						<polygon class="st4" points="1435.7,153.9 1435.6,168.9 1460.9,169 1461,154 						"/>
						<path class="st4" d="M1390.4,153.9l0.2,15c4.2-0.1,8.4-0.1,12.6-0.1l12.6,0l0-15l-12.7,0
							C1398.9,153.8,1394.6,153.8,1390.4,153.9z"/>
					</g>
				</g>
				<g>
					<g>
						<g>
							<path class="st3" d="M1517.8,234c5.9-0.1,11.9-0.2,17.8-0.4l17.9-0.7c6-0.2,11.9-0.5,17.9-0.9l17.9-1l17.8-1.3
								c5.9-0.5,11.9-0.8,17.8-1.4l17.7-1.6c5.9-0.5,11.8-1.2,17.7-1.8l-15.7-149.2c-5.4,0.5-10.8,1.2-16.2,1.6l-16.2,1.5
								c-5.4,0.5-10.8,0.8-16.2,1.2l-16.2,1.2c-21.5,1.2-43,2.3-64.7,2.6L1517.8,234z"/>
						</g>
						<path class="st4" d="M1616.6,148.5l1.3,14.9c8.4-0.8,16.9-1.5,25.3-2.3l-1.5-14.9C1633.3,147,1625,147.7,1616.6,148.5z"/>
						<polygon class="st4" points="1571.5,151.6 1572.4,166.6 1585.1,165.9 1597.8,165 1596.7,150 1584.1,150.9 						"/>
						<path class="st4" d="M1526.5,153.5l0.4,15c4.2-0.1,8.5-0.2,12.7-0.4l12.7-0.5l-0.6-15l-12.6,0.5
							C1534.9,153.2,1530.7,153.4,1526.5,153.5z"/>
					</g>
				</g>
				<g>
					<g>
						<g>
							<path class="st3" d="M1660.1,225c23.5-2.5,47-5.4,70.5-8.8c23.4-3.4,46.8-7.2,70.1-11.5l-27.3-147.5
								c-21.4,3.9-42.8,7.4-64.3,10.6c-21.5,3.2-43.1,5.8-64.7,8.1L1660.1,225z"/>
						</g>
						<path class="st4" d="M1751.3,131.8l2.4,14.8c8.4-1.4,16.7-2.8,25.1-4.3l-2.6-14.8C1767.9,129,1759.6,130.4,1751.3,131.8z"/>
						<path class="st4" d="M1706.6,138.5l2,14.9l12.6-1.8c4.2-0.6,8.4-1.2,12.6-1.9l-2.3-14.8c-4.2,0.7-8.3,1.3-12.5,1.9
							L1706.6,138.5z"/>
						<path class="st4" d="M1661.9,144.1l1.7,14.9c8.4-1,16.8-1.9,25.2-3l-1.9-14.9C1678.6,142.2,1670.3,143.1,1661.9,144.1z"/>
					</g>
				</g>
				<g>
					<g>
						<g>
							<path class="st3" d="M1800.6,204.7c46.6-8.6,92.8-19.1,138.6-31.3l-38.8-144.9c-42,11.2-84.3,20.8-127.1,28.7L1800.6,204.7z"
								/>
						</g>
						<path class="st4" d="M1884.3,104.6l3.6,14.6c4.1-1,8.2-2,12.3-3.1c4.1-1,8.2-2.1,12.3-3.2l-3.8-14.5
							c-4.1,1.1-8.1,2.1-12.2,3.1S1888.4,103.6,1884.3,104.6z"/>
						<path class="st4" d="M1840.3,114.8l3.2,14.7c8.3-1.9,16.6-3.7,24.8-5.6l-3.4-14.6C1856.7,111.2,1848.5,113,1840.3,114.8z"/>
						<path class="st4" d="M1796.2,123.8l2.8,14.7c8.3-1.6,16.6-3.3,24.9-4.9l-3-14.7C1812.6,120.6,1804.4,122.3,1796.2,123.8z"/>
					</g>
				</g>
			</g>
		</g>
	</g>
</g>
<path class="st5" d="M6.5,939.8l56,9.2c5.2,0.9,10.2-2.7,11-7.9l0.1-0.8c0.9-5.2-2.7-10.2-7.9-11L9.7,920c-5.2-0.9-10.2,2.7-11,7.9
	l-0.1,0.8C-2.3,933.9,1.3,938.9,6.5,939.8z"/>
<path class="st5" d="M156.3,961.2l56.6,4.1c5.3,0.4,9.9-3.6,10.3-8.9l0.1-0.8c0.4-5.3-3.6-9.9-8.9-10.3l-56.7-4.1
	c-5.3-0.4-9.9,3.6-10.3,8.9l-0.1,0.8C147,956.2,151,960.8,156.3,961.2z"/>
<path class="st5" d="M288.6,968.2l56.8,2c5.3,0.2,9.8-4,9.9-9.3l0-0.8c0.2-5.3-4-9.8-9.3-9.9l-56.8-2c-5.3-0.2-9.8,4-9.9,9.3l0,0.8
	C279.1,963.5,283.3,968,288.6,968.2z"/>
<path class="st5" d="M419.7,971.2l56.6-4.1c5.3-0.4,9.3-5,8.9-10.3l-0.1-0.8c-0.4-5.3-5-9.3-10.3-8.9l-56.6,4.1
	c-5.3,0.4-9.3,5-8.9,10.3l0.1,0.8C409.8,967.6,414.4,971.6,419.7,971.2z"/>
<path class="st5" d="M560.8,961.4l56.6-4.4c5.3-0.4,9.2-5,8.8-10.3l-0.1-0.8c-0.4-5.3-5-9.2-10.3-8.8l-56.6,4.4
	c-5.3,0.4-9.2,5-8.8,10.3l0.1,0.8C550.9,957.8,555.5,961.8,560.8,961.4z"/>
<path class="st5" d="M706.2,947.3l56.5-6.2c5.2-0.6,9.1-5.3,8.5-10.6l-0.1-0.8c-0.6-5.2-5.3-9.1-10.6-8.5l-56.5,6.2
	c-5.2,0.6-9.1,5.3-8.5,10.6l0.1,0.8C696.1,944,700.9,947.8,706.2,947.3z"/>
<path class="st5" d="M828.5,925.7l53.9-18c5-1.7,7.7-7.1,6.1-12.2l-0.2-0.8c-1.7-5-7.1-7.7-12.2-6.1l-53.9,18
	c-5,1.7-7.7,7.1-6.1,12.2l0.2,0.8C818,924.7,823.5,927.4,828.5,925.7z"/>
<path class="st5" d="M942.5,879.3l32.1-46.9c3-4.4,1.9-10.4-2.5-13.3l-0.7-0.5c-4.4-3-10.4-1.9-13.3,2.5L926,868
	c-3,4.4-1.9,10.4,2.5,13.3l0.7,0.5C933.5,884.8,939.5,883.7,942.5,879.3z"/>
<path class="st5" d="M939.8,702.7l15.9,54.5c1.5,5.1,6.8,8,11.9,6.5l0.8-0.2c5.1-1.5,8-6.8,6.5-11.9L959,697.1
	c-1.5-5.1-6.8-8-11.9-6.5l-0.8,0.2C941.3,692.2,938.4,697.6,939.8,702.7z"/>
<path class="st5" d="M915.9,582.7l9.3,56c0.9,5.2,5.8,8.8,11,7.9l0.8-0.1c5.2-0.9,8.8-5.8,7.9-11l-9.3-56c-0.9-5.2-5.8-8.8-11-7.9
	l-0.8,0.1C918.5,572.6,915,577.5,915.9,582.7z"/>
<path class="st5" d="M891.2,460l10.7,55.8c1,5.2,6,8.6,11.2,7.6l0.8-0.2c5.2-1,8.6-6,7.6-11.2l-10.7-55.8c-1-5.2-6-8.6-11.2-7.6
	l-0.8,0.1C893.7,449.8,890.2,454.8,891.2,460z"/>
<path class="st5" d="M893.9,326.1l-12.4,55.4c-1.2,5.1,2.1,10.3,7.3,11.5l0.8,0.2c5.2,1.1,10.3-2.1,11.5-7.3l12.4-55.4
	c1.2-5.1-2.1-10.3-7.3-11.5l-0.8-0.2C900.2,317.7,895,321,893.9,326.1z"/>
<path class="st5" d="M965.7,236.8l-40.3,40c-3.8,3.7-3.8,9.8,0,13.6l0.6,0.6c3.7,3.8,9.8,3.8,13.6,0l40.3-40c3.8-3.7,3.8-9.8,0-13.6
	l-0.6-0.6C975.5,233.1,969.4,233,965.7,236.8z"/>
<path class="st5" d="M1086.4,183.5l-53.9,17.8c-5,1.7-7.8,7.1-6.1,12.1l0.2,0.8c1.7,5,7.1,7.8,12.1,6.1l53.9-17.8
	c5-1.7,7.8-7.1,6.1-12.1l-0.2-0.8C1096.9,184.6,1091.4,181.8,1086.4,183.5z"/>
<path class="st5" d="M1222.7,161.4l-54.7,9.1c-5.1,0.9-8.9,5.6-8.5,10.6l0.1,0.8c0.4,4.9,4.9,8.3,10,7.5l54.7-9.1
	c5.1-0.9,8.9-5.6,8.5-10.6l-0.1-0.8C1232.3,163.9,1227.8,160.6,1222.7,161.4z"/>
<path class="st5" d="M1307.2,177l56.6-4.4c5.3-0.4,9.2-5.1,8.8-10.3l-0.1-0.8c-0.4-5.3-5.1-9.2-10.3-8.8l-56.6,4.4
	c-5.3,0.4-9.2,5.1-8.8,10.3l0.1,0.8C1297.3,173.4,1302,177.4,1307.2,177z"/>
<path class="st5" d="M1442.7,175.8l56.8-1.9c5.3-0.2,9.4-4.6,9.3-9.9l0-0.8c-0.2-5.3-4.6-9.4-9.9-9.3l-56.8,1.9
	c-5.3,0.2-9.4,4.6-9.3,9.9l0,0.8C1433,171.8,1437.4,176,1442.7,175.8z"/>
<path class="st5" d="M1580.5,175.7l56.5-5.7c5.2-0.5,9.1-5.3,8.6-10.5l-0.1-0.8c-0.5-5.2-5.3-9.1-10.5-8.6l-56.5,5.7
	c-5.2,0.5-9.1,5.3-8.6,10.5l0.1,0.8C1570.5,172.3,1575.3,176.2,1580.5,175.7z"/>
<path class="st5" d="M1716.4,162.3l56.1-9.1c5.2-0.9,8.8-5.8,7.9-11l-0.1-0.8c-0.8-5.2-5.8-8.8-11-7.9l-56.1,9.1
	c-5.2,0.9-8.8,5.8-7.9,11l0.1,0.8C1706.3,159.5,1711.2,163.1,1716.4,162.3z"/>
<path class="st5" d="M1852.2,132.1l54.7-15.2c5.1-1.4,8.1-6.7,6.7-11.8l-0.2-0.8c-1.4-5.1-6.7-8.1-11.8-6.7l-54.7,15.2
	c-5.1,1.4-8.1,6.7-6.7,11.8l0.2,0.8C1841.8,130.5,1847.1,133.5,1852.2,132.1z"/>
<path class="st6" d="M688,756.9c2.9,0.2,5.9-0.4,8.7,0.6c-1.9,0.4-1.9,2.1-1.9,3.4c-0.2,14-2.9,27.8-4.7,41.6
	c-0.8,5.9-0.7,12-2.5,17.7c-2.2,6.7-6.4,10.7-13.8,11.8c-11,1.5-22,0.5-33,0.5c-17.6-0.1-35.1-0.3-52.7-0.6
	c-16.5-0.2-32.9-0.7-49.4-0.9c-19.9-0.2-39.8-1.9-59.7-1.6c-12.7,0.2-25.4-0.6-38.1-0.7c-17.6-0.2-35.2,0.2-52.7-0.5
	c-18.2-0.6-36.4-0.4-54.6-1.7c-11.3-0.8-22.8-1.7-34.3-0.8c-7.6,0.6-15.4-1-23-0.5c-12.7,0.7-25.4-1.1-38.1-0.1
	c-7.1,0.5-14.4-0.7-21.6-0.6c-14.4,0.1-28.8-0.7-43.3-0.5c-8.8,0.2-17.6-1.1-26.3-1.8c-10-0.7-20.1,0.2-30.1-0.3
	c-12.5-0.6-21.2-4.9-19.7-21.2c1.6-17.2,4.4-34.3,6.7-51.5c1.5-11.4,3.1-22.7,4.4-34.1c1-8.9,3.7-17.4,4.4-26.4
	c1.1-13.6,3.3-27.2,5.2-40.7c2-14.5,3.5-29.1,6.2-43.4c3.8-20,5.7-40.3,8.6-60.5c2.7-18.4,4.7-36.8,8-55.1
	c3.6-19.6,4.7-39.7,8.1-59.3c2.2-13.3,2.9-26.8,6.3-40c3-12,3.5-24.6,5.1-36.9c1.4-10.3,2.9-20.6,4.2-30.9c0.7-5.9,1-11.9,2.7-17.7
	c1.4-4.8,4-8.1,8.6-9.9c0.4,5.2-1.5,10.3-0.6,15.5c-3.2,3-2.9,7.4-3.1,11c-0.6,10.8-3.5,21.2-4,31.9c-0.4,9-3,17.7-2.9,26.7
	c0,5.5-1.7,11.1-2.6,16.7c-1.9,11.6-3.5,23.3-6,34.8c-1.6,7.4-1.9,15.2-2.9,22.9c-1.2,8.7-2.3,17.4-3.3,26.2
	c-1.2,10-3.5,19.8-3.2,30c0.1,3.3-1.3,6.2-2.3,9.2c-2.2,7-2.4,14.3-3.6,21.5c-1.4,8.2-2.3,16.5-3.1,24.8c-1,9.1-3.1,18-3.7,27
	c-0.7,10.2-2.6,20.3-3.9,30.5c-0.7,5.8-2.5,11.6-3.5,17.5c-2,12.8-3.3,25.6-5.3,38.3c-1.5,9.2-2.2,18.7-3.5,28
	c-1.2,8.4-1.2,16.8-4,25c-1.9,5.6-2.4,12-2.8,18.2c-0.7,8.9-2,17.8-3.4,26.6c-1.3,8.2-2.1,16.5-3.2,24.8c-1,7.6,4.6,12.8,12.4,12.4
	c5-0.2,10,0.7,15.1,0.8c12.1,0.3,24.3,0.9,36.3,0.5c15.6-0.5,30.8,1.8,46.2,2.2c5.8,0.1,11.6-0.8,17.4-0.2c13,1.2,26.1-0.8,39.1,1.2
	c1.2,0.2,2.5,0.4,3.8,0.2c9.5-1.9,18.8-0.9,28.2,0.4c0.9,0.1,1.9,0,2.8-0.1c9.4-1.9,18.9-1.4,28.3-0.1c1.4,0.2,2.9,0.4,4.2,0.1
	c8.7-1.8,17.3-0.3,26,0.3c2.2,0.2,4.4,0.2,6.6-0.2c3.8-0.7,7.4-0.3,11.2,0.7c5.5,1.6,11.4,1.2,16.9,0.7c8.5-0.9,16.7,0.8,25,0.4
	c12.6-0.6,25.2,0.4,37.7,0.4c8.5,0,17,0.7,25.5,0.2c8-0.5,16,1.6,24.1,0.3c4.5-0.7,9.2-0.2,13.7,0.1c13.8,1.2,27.6-1.3,41.5,1.4
	c6.7,1.3,14.1,0,21.2,0.5c12.4,0.9,25,1.1,37.2,0.6c14.6-0.6,29.3,2.5,43.9-0.5c9.1-1.9,12-4.2,12.5-13.6c1-15.3,3.7-30.4,3.7-45.8
	C685.2,761.5,686.1,759,688,756.9z"/>
<path class="st7" d="M169.9,393.8c-1.8,11.3-1.5,22.7-2.7,34c-0.2,2.3,0.4,4.7-0.8,6.9c-2.6,13.9-4.7,27.9-6.7,42
	c-3,21-4.6,42.1-8.2,63c-4.3,24.5-7.6,49-10.7,73.6c-1.5,11.6-2.8,23.2-4.8,34.8c-3.2,17.8-6.1,35.5-7.9,53.5
	c-1.7,16.7-4.3,33.2-6.6,49.8c-1.8,13-4.5,25.8-6.4,38.8c-1.8,12.8-0.7,14.4,12.1,14.8c23.5,0.9,47.1,0.9,70.6,1.3
	c16.8,0.3,33.5-0.1,50.2,1c28.7,1.8,57.5,1.4,86.3,2c27,0.6,54,0.5,81.1,1.2c18.6,0.5,37.2,2.1,55.9,2c16.8-0.1,33.5,0.5,50.2,0.4
	c23.4-0.2,46.8,0.6,70.2,0.8c20.1,0.2,40.1,2.5,60.2,2.3c4,0,7.9-0.2,11.8-0.4c6-0.4,8.2-2.4,9-8.3c2.2-16.8,3.4-33.6,3.9-50.5
	c2.2,0,4.5,0,6.7,0c1.2,1.1,1,2.6,1,4c-1.2,16.9-2.6,33.8-4.5,50.6c-0.8,6.4-4.2,10.2-10.6,11c-7.3,0.9-14.7,1.8-22.2,1
	c-7.4-0.8-14.8-1.3-22.2-0.2c-4.6,0.7-9.1-1-13.7-0.8c-15.8,0.8-31.5-1.6-47.3-1.5c-13.4,0.1-26.9-0.7-40.3-0.6
	c-15.8,0-31.6-0.2-47.4-0.4c-13.8-0.2-27.5-1-41.2-0.7c-20.7,0.4-41.3-2.5-62-2.1c-18.1,0.4-36.3-0.1-54.4-0.7
	c-4.8-0.2-9.5-0.2-14.2,0.5c-0.5,0-1.1,0-1.6,0c-9.5-1-18.9-1.8-28.5-0.4c-0.5,0-1.1,0-1.6-0.1c-11.7-1.9-23.6-0.4-35.4-1
	c-9.9-0.5-19.7-1.9-29.7-2c-3.2,0-6.3,0.6-9.4,0.8c-0.8,0.1-1.6,0.1-2.4,0c-9.1-1.1-18.3-1.8-27.5-0.4c-1.1,0.1-2.1,0.1-3.2,0
	c-8.9-1.2-17.9-1.5-26.9-0.6c-0.5,0-1,0-1.6-0.1c-6.3-0.7-12.6-0.3-18.9-1c-7-0.8-10.3-4.1-11.3-11.1c0-0.5,0-1,0.1-1.5
	c1.1-5.6,2.4-11.1,2.2-16.9c0-0.5,0.1-1,0.2-1.4c1.3-5.3,2.7-10.5,2-16.1c0-0.5,0.1-1,0.2-1.5c3.9-19.2,7-38.4,9.3-57.9
	c1.8-15.2,3.2-30.5,6.3-45.5c0.6-2.9,0.7-5.6,0.2-8.4c-0.1-0.8,0-1.5,0.1-2.2c2.8-8.4,3.6-17.2,5.7-25.7c0.6-2.4-0.3-4.7-0.1-7
	c0-0.5,0.1-1,0.2-1.5c2.1-9.9,2.7-20,4.4-29.9c2.5-15.1,3.2-30.4,6.3-45.4c1.3-6.1,3.6-12.1,2.8-18.5c-0.1-0.7,0-1.5,0.2-2.2
	c1.6-4.9,2.7-9.8,2.4-15c0-0.5,0.1-0.9,0.1-1.4c0.4-5.8,2.5-11.3,2-17.1c0-0.5,0.1-0.9,0.2-1.4c1.3-5.4,2.9-10.7,2-16.3
	c0-0.5,0.1-0.9,0.2-1.4c1.6-5.2,2-10.5,2-15.9c0-0.5,0.1-1,0.2-1.5c2.6-12.5,5.2-25,7-37.7c0.2-1.8-0.2-3.5-0.4-5.2
	c1.2-9.5,3.4-18.8,4.4-28.4c0.5-4.7,0.3-9.4,1.8-14c0.5-1.5,0.3-3.6,2.7-3.7c0.1,0,0.1,0.2,0.2,0.3c0,0.1,0,0.3,0,0.5
	C171.2,372,169.1,382.8,169.9,393.8z"/>
<path class="st8" d="M111.6,763.9c0.1,0.3,0.1,0.6,0.1,0.9c-0.9,5.5-1.8,11.1-2.4,16.7l0,0c-0.8,5.8-1.9,11.7-2.2,17.6
	c0.1,0.3,0.1,0.6,0.1,0.9c-0.2,7.1,2.7,10.3,9.4,11.5c6.7,1.2,13.4,0.3,20.1,0.5l0,0c7.9-0.2,15.8,1.1,23.8,0.4
	c1.4-0.1,2.8-0.2,4.2,0.3c0.9-0.1,1.9-0.3,2.8-0.4c9.3,0.3,18.6,0.9,27.9,0.7c0.6-0.1,1.2-0.2,1.9-0.3c25,1.3,50.1,2.5,75.2,2.5
	c0.3,0,0.6-0.1,0.9-0.1c9.6,0,19.2,0.8,28.9,0.6c0.3,0,0.6-0.1,0.9-0.1c1.3,1,3.3-0.9,4.3,0.9c0.9,1.7-0.7,2.5-1.7,3.5
	c-5.2,0.4-10.2-1.2-15.4-1.3c-2.8-0.1-5.6-0.6-8.4,0c-8.2,1.8-16.2,0-24.4-0.7c-0.8-0.1-1.6-0.4-2.3-0.2c-8.2,2.8-16.6,0.2-24.9,0.4
	c-13.6,0.2-27.2,0.2-40.8-1.7c-11.5-1.6-23.1,0.7-34.7-0.5c-11.7-1.2-23.5,1.3-35.1-1.3c-2.8-0.6-5.7,1.3-8.8-0.2
	c-6.2-3-9.3-7.7-7.9-14.4c2-9.3,2.8-18.9,4.1-28.3c1.3-9.2,2.8-18.4,3.3-27.8c0.4-6.9,2.3-13.7,3.9-20.5c1.7-7.6,2.6-15.4,3-23.1
	c0.2-4.6,1.8-8.8,1.8-13.5c0-11.7,3.1-23.1,4.4-34.7c1-9.4,1.7-19.1,4.9-28.5c2-6,2.7-13.2,2.7-19.9c0-3.9,1.2-7.4,1.6-11.2
	c0.6-6.7,2.5-13.4,2.9-19.9c0.4-7.7,1.9-15.1,2.7-22.6c1.4-12.4,1.8-25.1,6.5-36.9c0.5-1.2,1.1-2.3,0.7-3.6
	c-1.2-4.1,0.4-8.1,0.6-12.1c0.6-9.6,2.4-19.1,3.6-28.6c1.1-8.5,2.3-17,3.5-25.5c1.1-8,1.6-16.2,3.6-23.9c1.8-7.2,1.1-14.7,3.8-21.5
	c1.6-4,0.2-8,1.2-12c2.4-9.7,3-19.8,3.9-29.8c0.8-9,2.5-17.9,4.1-26.9c0.9-5.4,0.3-10.9,1.7-16.3c0.6-2.2,1.2-3.4,3.4-3.6
	c-1,14.9-2,29.7-3.1,44.6c-0.2,2.3,0.4,4.7-0.8,6.9c-3,2.4-2.6,6.2-2.8,9.1c-0.7,11.9-3,23.5-5.1,35.2c-0.1,0.3,0.1,0.6,0.1,0.9
	c-0.9,11.7-4,23-5.9,34.5c-0.5,2.9-0.4,5.9-1.2,8.8c0.1,0.3,0.1,0.6,0.1,0.9c-0.9,5.5-1.7,11.1-2.4,16.7l0,0
	c0.3,6-2.1,11.6-2.2,17.6l0,0c-0.8,6.2-2.3,12.2-2.1,18.5l0,0c-0.7,5.3-1.6,10.5-2.5,15.7c0.1,0.6,0.2,1.2,0.3,1.9
	c-3,16.3-5.8,32.7-7.8,49.3c-1.8,15.3-3.7,30.6-6.2,45.8l0,0c-0.4,11.4-4.2,22.2-5.7,33.5c0.1,0.6,0.2,1.2,0.3,1.9
	C122.2,688.8,118.5,726.6,111.6,763.9z"/>
<path class="st9" d="M305.9,820.1c2.7-3.5-0.5-3.6-2.6-4.4c9.6-1.8,19.2,0.6,28.6-0.2c12.9-1,25.7,1.4,38.6,0.2
	c7.8-0.7,15.7,0.1,23.5,0.6c22,1.4,44.1,1.4,66.2,1.8c13.9,0.3,27.9,0.2,41.9,0.9c14.4,0.7,28.8,0,43.2-0.1c2.7,0,5.4-0.4,8,0
	c9.4,1.7,19-0.9,28.2,0.7c12.5,2.1,25.1,0.4,37.6,2c7.7,1,15.7-1.3,23.5-0.1c8.8,1.4,17.5,0.4,26.2-0.5c6-0.6,9.3-4.5,9.8-10.3
	c0.7-8.3,1.5-16.6,2.2-24.9c0.8-9.7,1.6-19.4,2.5-29.1c1.6,0.1,3.2,0.1,4.8,0.2c-2.8,10.4-1.3,21.2-3,31.7
	c-1.4,8.8-1.8,17.7-3.1,26.5c-1,6.3-3.8,8.2-10,9.4c-11.1,2.1-22.1,2.2-33.2,0.3c-1-0.2-2.2,0-3.3,0.2c-9.1,1.5-18.1,1.2-27.1-0.5
	c-0.8-0.1-1.6-0.2-2.3,0c-9.4,1.9-18.8-0.7-27.9-0.1c-8.4,0.5-16.5-0.5-24.6-1.2c-8.7-0.8-17.1,1.2-25.8,0.1
	c-6.3-0.8-13.1-1-19.6,0.1c-6.7,1.1-13.3-1.1-20.2-0.5c-8.5,0.7-17.1,0-25.7-0.5c-7.8-0.5-15.7,1.6-23.4-0.7
	c-1.6-0.5-3.1-0.1-4.7,0.1c-8,0.9-16,0.6-23.9-0.4c-1.5-0.2-3.1-0.4-4.7-0.2c-9.2,0.7-18.4,2.1-27.3-1.5c-0.5-0.2-1.3-0.2-1.9,0
	c-9.1,1.8-18.1,0.4-27.2-0.6c-0.8-0.1-1.6-0.1-2.4,0.1c-9.2,2.3-18.4,0.1-27.6-0.4C314.6,818.4,310.3,819.7,305.9,820.1z"/>
<path class="st9" d="M111.6,763.9c-1.2-4.1-0.2-8.1,0.9-12.1c0.9-3.1,1.6-6.1,0.8-9.3c-0.8-3.3,2.5-5.3,2.6-8.4
	c0.4-9,2.9-17.8,3.3-27c0.2-5,1.3-10.2,2.1-15.3c1.8-12.1,2.6-24.3,5-36.3c0.3-1.5,0.3-3.2,1.5-4.4c1.7,7.6-1.7,14.6-2.4,21.9
	c-1.4,14.3-3.9,28.6-5.2,42.9c-0.8,8.8-2,17.6-3.8,26C114.9,749.3,115.2,757.1,111.6,763.9z"/>
<path class="st9" d="M133.3,615.9c-0.6-2.8-0.1-5.5,0.4-8.4c1.5-9.9,2.5-19.9,3.7-29.8c1.3-10.5,3-21,4.1-31.5
	c0.8-7.7,3.2-15,4.3-22.6c0.2-1.2,0.5-2.1,1.5-2.8c0.9,6-0.6,11.7-2.3,17.4c-2.6,9.2-2.8,18.8-4.2,28.3c-2,13.1-3.5,26.3-5.3,39.5
	C135,609.4,135.8,613,133.3,615.9z"/>
<path class="st9" d="M272.6,815.3c-9.5,2.7-19-0.3-28.6,0.2c-14.9,0.8-29.7-0.6-44.5-2c-0.7-0.1-1.4-0.4-2.2-0.7
	c9.9-1.7,19.6-0.6,29.4,0.5c13.2,1.4,26.6,0.3,39.8,1C268.6,814.4,270.8,814.2,272.6,815.3z"/>
<path class="st9" d="M156.1,449.5c-1.7-7.3,0.7-14.4,2.5-21.2c1.6-6,1.5-12.3,3.5-18.1c0.4-1.3,0.1-2.9,1.2-4
	c1,3.5,0.2,6.9-0.4,10.3c-1.7,9.7-3.3,19.4-5.1,29.1C157.5,447,156.6,448.2,156.1,449.5z"/>
<path class="st9" d="M127.6,649.4c-1.1-3.3-0.1-6.5,0.5-9.7c1.6-7.9,3.4-15.9,5.2-23.8c0.9,3.9,0.7,7.7-0.3,11.5
	C131.2,634.8,131,642.5,127.6,649.4z"/>
<path class="st9" d="M136.8,812.1c-7.3,1.5-14.6,1.8-22,0.2c-6.2-1.4-8.9-5.7-7.6-12.2c1,9.5,6.2,10.8,16.2,11
	C128,811.2,132.5,810.9,136.8,812.1z"/>
<path class="st9" d="M164.8,812.8c-9.4,1.8-18.7,0.9-27.9-0.7c8.3-1.9,16.7,0,25-0.5C162.8,811.5,163.8,812.4,164.8,812.8z"/>
<path class="st9" d="M195.5,813.1c-9.4,2.1-18.7,1.1-27.9-0.7C176.9,811.2,186.2,811.2,195.5,813.1z"/>
<path class="st9" d="M302.4,815.8c-9.7,2-19.3,0.8-28.9-0.6C283.2,813.7,292.8,814.1,302.4,815.8z"/>
<path class="st9" d="M149.5,503.2c-1.5-6.4-0.5-12.6,2.1-18.5C152.8,491.1,150.6,497.1,149.5,503.2z"/>
<path class="st9" d="M107.1,799.1c-1.4-6.1-0.2-11.9,2.2-17.6C110.3,787.6,109.2,793.4,107.1,799.1z"/>
<path class="st9" d="M151.6,484.7c-2-6.2,1.4-11.7,2.2-17.6C155.2,473.3,154,479.1,151.6,484.7z"/>
<path class="st9" d="M109.4,781.5c-1-5.8-0.2-11.4,2.4-16.7C112.7,770.7,111.5,776.2,109.4,781.5z"/>
<path class="st9" d="M147,519c-1-5.5,0.5-10.7,2.5-15.7C150.4,508.8,149.8,514,147,519z"/>
<path class="st9" d="M153.8,467.1c-1.4-5.9,0.6-11.2,2.4-16.7C156.3,456.1,156.6,461.9,153.8,467.1z"/>
<linearGradient id="SVGID_1_" gradientUnits="userSpaceOnUse" x1="459.0715" y1="547.0157" x2="459.0715" y2="231.33">
	<stop  offset="0.4758" style="stop-color:#BEE2E7"/>
	<stop  offset="1" style="stop-color:#197A7F"/>
</linearGradient>
<path class="st10" d="M179.4,231.3c6.3,1.9,12.8,0.8,19.1,0.9c13.3,0.4,26.7,0.2,40.1,0.4c17.9,0.1,35.8,0.3,53.7,0.5
	c18.9,0.2,37.7,0.4,56.5,0.6c17.9,0.2,35.8,0.4,53.7,0.6c17.4,0.2,34.9,0.5,52.3,0.7c19.3,0.2,38.6,0.3,58,0.5
	c19.8,0.2,39.6,0.5,59.4,0.7c19.3,0.2,38.6,0.2,58,0.5c21.7,0.2,43.3,0.6,65,0.8c13.2,0.1,26.4,0.4,39.6,0.1
	c4.4-0.1,5.4,1.6,5.3,5.6c-0.2,16.5-0.5,33-0.2,49.5c0.3,19.6,1.1,39.3,1.9,58.9c0.6,14.6,1.7,29.2,2.3,43.8
	c0.7,14.1,1,28.3,1.6,42.4c0.5,11,1.2,22,1.7,33c0.5,11.1,0.8,22.3,1.3,33.4c0.5,10.7,1,21.4,1.5,32c0.2,3.3,0.3,6.6,0.4,9.9
	c-1.8,1.5-3.1,0.2-3.8-1.2c-1.8-3.4-4.9-4.2-8.2-5.1c-16.7-4.2-33.4-8.4-50.1-12.9c-25.6-6.9-51.4-13.2-77.1-20
	c-21.8-5.7-43.8-11.2-65.6-16.9c-27.1-7-54.2-13.9-81.2-21c-28.3-7.5-56.6-14.8-84.9-22c-19.8-5-39.5-10.3-59.2-15.4
	c-14.9-3.8-29.7-7.7-44.6-11.3c-15.5-3.7-30.8-8.3-46.3-12.2c-15-3.8-30-7.8-45.1-11.4c-5.5-1.3-11-2.7-16.1-5.3
	c-1-1.5-1.2-3.3-1.1-5c0.5-9.1,1-18.3,1.7-27.4c1.6-17.2,2-34.5,3.5-51.7c0.1-5.2-0.3-10.5,2.1-15.4c-0.4-20.1-0.7-40.2-1-60.3
	C175.6,231.9,177.5,231.6,179.4,231.3z"/>
<path class="st11" d="M169,392c7.9,0.9,15.3,3.7,22.9,5.5c19.9,4.6,39.7,10,59.6,15.2c19.2,5,38.4,10.2,57.6,15.3
	c16.2,4.2,32.4,8.2,48.6,12.4c25.2,6.5,50.3,13.2,75.5,19.7c16.3,4.2,32.8,8,49,12.4c14.9,4,29.9,7.8,44.8,11.6
	c17.4,4.4,34.8,8.9,52.2,13.5c13.4,3.5,26.8,7.2,40.2,10.8c6.8,1.8,13.7,3.5,20.6,5.3c21,5.4,42.1,10.8,63.2,16.2
	c12.5,3.2,25,6.5,37.5,9.7c3.3,0.8,6.4,1.7,7.3,5.6c0.3,1.2,1.5,1.5,2.8,1.3c0.5,8.3,1.1,16.6,1.5,24.9c0.4,8.2,0.6,16.3,0.9,24.5
	c0.4,11.5,0.9,22.9,1.4,34.3c0.5,10.7,1.1,21.3,1.5,32c0.5,11.6,0.9,23.2,1.4,34.8c0.5,10.8,1,21.7,1.7,32.5
	c0.5,7.7,0.3,15.4,1.3,23.1c0.4,2.9-1.2,3.8-4.4,3.8c-18.8-0.5-37.6-0.6-56.5-0.9c-1.2,0-2.5,0.3-3.8,0.5c-2.9,0.2-5.7,1.1-8.6,0.6
	c-1.7,0.1-3.5-0.2-5.2-0.2c-2.3,0.3-4.6-0.4-6.9,0.1c-31-0.2-62-0.8-93-1.1c-65.3-0.7-130.6-1.5-195.9-2.1
	c-57.1-0.5-114.2-1.1-171.3-1.1c-20.6,0-41.1-0.1-61.7,0.5c-8.8,0.3-9.1-0.3-8.6-9c2.9-46.3,5.9-92.5,8.8-138.8
	c3.4-52.9,6.6-105.8,10.1-158.6c0.3-4.2,0.5-8.5,0.8-12.8c1-11.7,1.5-23.4,2.4-35C167,396.1,166.2,393.4,169,392z"/>
<path class="st12" d="M675.6,755c0.8,0.8,2,1.1,1.8,2.9c-1.8,16.7-2.1,33.5-4.6,50.2c-0.7,4.9-4.9,7.5-12,7.4
	c-12.4-0.1-24.8,0.3-37.2-0.5c-7.7-0.5-15.3-1.5-23-1.7c-17.4-0.4-34.8-0.4-52.2-0.6c-8.6-0.1-17.3-0.2-25.9-0.3
	c-11.9-0.1-23.8-0.2-35.7-0.3c-12.9-0.1-25.7-0.1-38.6-0.6c-21.3-0.8-42.6-2-63.9-1.9c-14.7,0-29.5-0.7-44.2-0.9
	c-16.8-0.3-33.6-0.4-50.4-0.5c-16.8-0.1-33.6-1-50.3-1.6c-13.8-0.5-27.6-0.9-41.4-0.6c-11.8,0.2-23.5-0.5-35.3-0.7
	c-13.3-0.3-26.6-0.7-40-0.6c-8,0.1-11.5-2.9-10.5-10.6c1.7-12.6,3.2-25.2,5.9-37.7c2.5-11.6,3.3-23.7,4.8-35.5
	c2.3-17.8,4-35.7,7.1-53.3c4.9-27.3,8-54.7,11.6-82.2c2.2-16.7,5.1-33.2,7.8-49.8c2.9-17.5,4.6-35.2,6.8-52.9
	c2.1-16.4,4.5-32.7,7.6-48.9c0.1-0.8,0.5-1.6,1.6-0.9c-0.7,13.3-1.3,26.7-2.2,40c-2.1,33.1-4.2,66.2-6.4,99.4
	c-2.1,32.8-4.1,65.6-6.2,98.4c-1.6,25.3-3.2,50.5-4.9,75.8c-0.2,2.8-0.6,4.7,3.9,4.5c17.9-0.5,35.8-0.5,53.8-0.4
	c23.3,0,46.5,0.2,69.8,0.2c26.3,0.1,52.5,0.1,78.8,0.3c25.6,0.2,51.2,0.7,76.9,1c29.5,0.3,59.1,0.4,88.7,0.8
	c27.3,0.3,54.7,0.9,82.1,1.2C625,754.5,650.3,754.7,675.6,755z"/>
<rect x="181.2" y="383.6" class="st3" width="587.9" height="368.7"/>
<text transform="matrix(1 0 0 1 181.1987 428.5522)" class="st5 st13 st14">Anglais </text>
<text transform="matrix(1 0 0 1 369.7487 428.5522)" class="st5 st13 st14 st15"> </text>
<text transform="matrix(1 0 0 1 397.1987 428.5522)" class="st5 st13 st14 st16">    </text>
<text transform="matrix(1 0 0 1 541.1987 428.5522)" class="st5 st13 st14">C1</text>
<text transform="matrix(1 0 0 1 181.1987 599.5522)" class="st5 st13 st14">Allemand</text>
<text transform="matrix(1 0 0 1 402.1487 599.5522)" class="st5 st13 st14 st17"> </text>
<text transform="matrix(1 0 0 1 433.1987 599.5522)" class="st5 st13 st14 st16"> </text>
<text transform="matrix(1 0 0 1 469.1987 599.5522)" class="st5 st13 st14">A2 Scolaire</text>
<path class="st5" d="M1720.1,874h-533.8c-60.8,0-110.1-75.2-110.1-168V508c0-92.8,49.3-168,110.1-168h533.8
	c60.8,0,110.1,75.2,110.1,168v198C1830.2,798.8,1780.9,874,1720.1,874z"/>
<rect x="1062.2" y="377" class="st3" width="796" height="293"/>
<text transform="matrix(0.7324 0 0 1 1142.4141 501.1862)" class="st11 st18 st19">Echange de 3 mois en Allemagne en  </text>
<text transform="matrix(1 0 0 1 1062.198 492.8398)" class="st11 st18 st20 st21">       </text>
<text transform="matrix(0.7324 0 0 1 1325.9764 553.3411)" class="st11 st18 st19">immertion totale </text>
<text transform="matrix(1 0 0 1 1617.4779 492.8398)" class="st11 st18 st20 st22"> </text>
<text transform="matrix(0.7324 0 0 1 1421.6406 599.5514)" class="st11 st18 st19">2012</text>
<text transform="matrix(0.7324 0 0 1 1163.7617 679.1045)" class="st11 st18 st19">Séjour de 3 semaines dans un pays </text>
<text transform="matrix(1 0 0 1 1062.198 612.8398)" class="st11 st18 st20 st21">        </text>
<text transform="matrix(0.943 0 0 1 1340.7764 738.8218)" class="st11 st18 st19">anglophone</text>
<text transform="matrix(1 0 0 1 1552.6379 612.8398)" class="st11 st18 st20 st23"> </text>
<text transform="matrix(1 0 0 1 1566.1979 612.8398)" class="st11 st18 st20 st24"> </text>
<text transform="matrix(0.7767 0 0 1 1062.1982 702.9707)" class="st11 st18 st25 st26">          </text>
<text transform="matrix(0.7324 0 0 1 1422.8905 798.4091)" class="st11 st18 st19">2011</text>
<text transform="matrix(1 0 0 1 1498.2179 642.8398)" class="st11 st18 st20 st27"> </text>
</svg>
