<?xml version="1.0" encoding="utf-8"?>
<!-- Generator: Adobe Illustrator 26.0.3, SVG Export Plug-In . SVG Version: 6.00 Build 0)  -->
<svg version="1.1" id="Calque_1" xmlns="http://www.w3.org/2000/svg" xmlns:xlink="http://www.w3.org/1999/xlink" x="0px" y="0px"
	 viewBox="0 0 1366 768" style="enable-background:new 0 0 1366 768;" xml:space="preserve">
<style type="text/css">
	.st0{fill:#F9E5DE;}
</style>
<g>
	<g>
		<path class="st0" d="M723.73,34.05v417.18h-723V40.72c140.62-62.67,236.72,33.93,346.81,95.54
			C472.01,172.44,623.39,93.62,723.73,34.05z"/>
		<path class="st0" d="M1363.69,451.17H723.72V34.39c140.35-63.76,237.47,34.87,346.81,97c93.18,30.79,212.41-17.6,293.86-57.14"/>
	</g>
	<g>
		<path class="st0" d="M640.77,732.45V315.26h723v410.51c-140.62,62.67-236.72-33.93-346.81-95.54
			C892.48,594.05,741.1,672.87,640.77,732.45z"/>
		<path class="st0" d="M0.8,315.32h639.98V732.1c-140.35,63.76-237.47-34.87-346.81-97c-93.18-30.79-212.41,17.6-293.86,57.14"/>
	</g>
</g>
</svg>
