<?xml version="1.0" encoding="utf-8"?>
<!-- Generator: Adobe Illustrator 26.0.3, SVG Export Plug-In . SVG Version: 6.00 Build 0)  -->
<svg version="1.1" id="Calque_1" xmlns="http://www.w3.org/2000/svg" xmlns:xlink="http://www.w3.org/1999/xlink" x="0px" y="0px"
	 viewBox="0 0 1920 1080" style="enable-background:new 0 0 1920 1080;" xml:space="preserve">
<style type="text/css">
	.st0{fill:#F7F093;}
</style>
<path class="st0" d="M1920.5,880.5c-10,3-33.86,8.34-46.27-1.08c-13.36-10.14-18.68-27.68-15-41c4.63-16.75,20.25-15.57,30-36
	c1.23-2.58,11.84-25.59,1-41c-10.47-14.88-34.04-12.86-44-12c-7.14,0.61-35.09,3.02-47,23c-4.62,7.74-4.51,14.24-2,50
	c2.32,33.08,3.49,49.62,4,53c7.8,51.17,22.26,60.84,14,79c-7.41,16.28-27.61,27.37-47,26c-30.18-2.13-43.34-33.37-44-35
	c-7.36-18.3-2.27-35.36,3-53c10.39-34.77,24.08-35.36,30-65c1.78-8.9,7.11-35.62-8-58c-2.67-3.96-10.11-14.66-24-20
	c-19.08-7.34-36.98,0.57-47,5c-11.16,4.93-22.92,10.13-28,22c-4.93,11.54-1.12,23.69,4,40c6.54,20.84,12.51,23.29,11,33
	c-2.14,13.77-16.65,25.05-31,28c-2.84,0.58-18.94,3.89-32-7c-11.52-9.61-13.9-24.61-12-35c1.65-9.06,5.78-10.36,12-22
	c3.46-6.47,17.85-33.42,8-48c-9.07-13.42-34.42-10.02-42-9c-23.01,3.09-37.57,16.65-41,20c-1.82,1.78-26.4,26.51-22,57
	c2.74,18.99,13.72,19.4,20,42c1.38,4.97,11.44,43.04-9,59c-15.05,11.75-38.4,5.09-51-2c-1.63-0.92-25.36-14.73-28-39
	c-2.23-20.5,13.1-25.21,21-55c2.53-9.53,12.29-46.37-8-69c-15.58-17.38-40.8-17.36-49-17l0.27,0.08c-7.98-0.08-22.27,0.91-37,9
	c-5.46,3-16.4,9.96-29,29c-7.87,11.89-31.76,48.01-27,94c4.33,41.82,27.64,46.28,23,75c-4.71,29.16-34.04,57.44-66,59
	c-3.71,0.18-31.17,1.11-45-18c-12.57-17.36-5.95-40.29-2-54c9.11-31.59,23.79-32.17,35-60c11.28-28,12.62-67.6-8-94
	c-11.37-14.55-34.43-31.54-51-24c-12.59,5.73-18.66,24.35-17,39c2.45,21.67,20.76,25.36,21,44c0.2,15.92-12.94,30.37-26,37
	c-19.68,9.98-45.46,5.38-59-11c-13.02-15.75-9.54-36.11-9-39c3.36-17.99,14.35-18.79,20-37c5.65-18.2,3.39-45.26-13-56
	c-12.56-8.23-28.81-4.25-38-2c-3.25,0.8-23.1,5.9-35,20c-12.71,15.06-12.18,35.43,0,104c12.96,72.94,18.71,85.64,9,101
	c-13.58,21.48-48.62,34.25-77,22c-21.19-9.15-36.34-31.25-37-53c-0.86-28.17,23.3-32.04,41-77c4.75-12.06,20.4-53.47,3-90
	c-3.51-7.38-9.78-20.07-23-25c-18.21-6.8-39.04,5.07-50,16c-26.07,25.98-19.3,69.53-18,77c5.15,29.55,19.44,36.82,14,53
	c-5.61,16.69-28.73,32.5-51,26c-16.68-4.87-27.51-20.68-29-35c-1.3-12.5,5.2-17.44,14-38c8.89-20.75,22.26-51.96,10-70
	c-9.43-13.88-30.39-14.62-41-15c-7.29-0.26-37.95-1.35-53,20c-10.61,15.06-7.88,33.37-6,46c2.42,16.24,7.14,19.21,13,37
	c5.82,17.66,14.9,45.2,4,71c-1.8,4.26-14.03,31.88-42,37c-14.45,2.64-34.93-0.39-46-15c-11.37-15.01-6.89-34.45-4-47
	c6.26-27.17,18.53-27.46,26-52c7.54-24.75,6.03-60.47-15-77c-12.31-9.67-26.65-9.12-29-9c-17.31,0.91-34.62,12.62-40,28
	c-6.74,19.26,12.34,33.56,5,55c-5.1,14.88-21.52,29.12-38,27c-16.61-2.13-28.68-20.31-30-36c-2.3-27.33,28.31-43.69,22-55
	c-4.73-8.48-27.7-9.63-40,1c-14.06,12.14-11.34,37.2-8,68c3.9,36,11.71,46.55,4,57c-9.37,12.71-35.59,16.99-53,4
	c-13.01-9.7-18.78-27.31-15-41c4.63-16.75,20.25-15.57,30-36c1.23-2.58,11.84-25.59,1-41c-10.47-14.88-34.04-12.86-44-12
	c-7.14,0.61-35.09,3.02-47,23c-4.62,7.74-4.51,14.24-2,50c2.32,33.08,3.49,49.62,4,53c7.8,51.17,22.26,60.84,14,79
	c-7.41,16.28-27.61,27.37-47,26c-30.18-2.13-43.34-33.37-44-35c-7.36-18.3-2.27-35.36,3-53c10.39-34.77,24.08-35.36,30-65
	c1.78-8.9,7.11-35.62-8-58c-2.67-3.96-10.11-14.66-24-20c-19.08-7.34-36.98,0.57-47,5c-11.16,4.93-22.92,10.13-28,22
	c-4.93,11.54-1.12,23.69,4,40c6.54,20.84,12.51,23.29,11,33c-2.14,13.77-16.65,25.05-31,28c-2.84,0.58-18.94,3.89-32-7
	c-11.52-9.61-13.9-24.61-12-35c1.65-9.06,5.78-10.36,12-22c3.46-6.47,17.85-33.42,8-48c-9.07-13.42-34.42-10.02-42-9
	c-23.01,3.09-37.57,16.65-41,20c-1.82,1.78-26.4,26.51-22,57c2.74,18.99,13.72,19.4,20,42c1.38,4.97,11.44,43.04-9,59
	c-15.05,11.75-38.4,5.09-51-2c-1.63-0.92-25.36-14.73-28-39c-2.23-20.5,13.1-25.21,21-55c2.53-9.53,12.29-46.37-8-69
	c-15.58-17.38-40.8-17.36-49-17L0,0h1920.5V880.5z"/>
</svg>
