<?xml version="1.0" encoding="utf-8"?>
<!-- Generator: Adobe Illustrator 26.0.3, SVG Export Plug-In . SVG Version: 6.00 Build 0)  -->
<svg version="1.1" id="Calque_1" xmlns="http://www.w3.org/2000/svg" xmlns:xlink="http://www.w3.org/1999/xlink" x="0px" y="0px"
	 viewBox="0 0 1920 1080" style="enable-background:new 0 0 1920 1080;" xml:space="preserve">
<style type="text/css">
	.st0{fill:#F7F093;}
	.st1{fill:none;}
	.st2{fill:#E28007;}
	.st3{font-family:'ArialMT';}
	.st4{font-size:82.5668px;}
	.st5{letter-spacing:13.9;}
	.st6{letter-spacing:-5.4;}
	.st7{letter-spacing:9.7;}
	.st8{fill:#2D1E33;}
	.st9{fill:#36261A;}
	.st10{fill:#34454D;}
	.st11{fill:#002732;}
	.st12{fill:#00D4FF;}
	.st13{fill:#D555FF;}
	.st14{fill:#BDDCEE;}
	.st15{fill:#FF7F18;}
	.st16{fill:#2F0014;}
	.st17{fill:#FC3F93;}
</style>
<g id="Calque_2_00000170995962663200459360000008006662810590771854_">
	<g>
		<rect x="0.9" y="1" class="st0" width="1920" height="1080"/>
	</g>
</g>
<rect x="182" y="640" class="st1" width="1556" height="440"/>
<text transform="matrix(0.9326 0 0 1 173.2938 502.3157)" class="st2 st3 st4">- Pack Office</text>
<text transform="matrix(0.9326 0 0 1 641.2938 502.3157)" class="st2 st3 st4 st5">               </text>
<text transform="matrix(0.9326 0 0 1 1181.2938 502.3157)" class="st2 st3 st4">Expert</text>
<text transform="matrix(0.9326 0 0 1 175.6798 700.4768)" class="st2 st3 st4">- Codage HTML et CSS</text>
<text transform="matrix(0.9326 0 0 1 986.3836 601.3967)" class="st2 st3 st4 st6"> </text>
<text transform="matrix(0.9326 0 0 1 1001.2938 601.3967)" class="st2 st3 st4 st5">     </text>
<text transform="matrix(0.9326 0 0 1 1175.4131 700.4768)" class="st2 st3 st4">Intermédiaire</text>
<text transform="matrix(0.9326 0 0 1 178.0659 910.7004)" class="st2 st3 st4">- SolidWorks</text>
<text transform="matrix(0.9326 0 0 1 609.6937 700.4768)" class="st2 st3 st4 st7"> </text>
<text transform="matrix(0.9326 0 0 1 641.2938 700.4768)" class="st2 st3 st4 st5">               </text>
<text transform="matrix(0.9326 0 0 1 1187.3766 911.6909)" class="st2 st3 st4">Intermédiaire</text>
<text transform="matrix(0.9326 0 0 1 175.6799 309.634)" class="st2 st3 st4">- Suite Adobe</text>
<g>
	<g>
		<path class="st8" d="M1821.4,270.9c-0.3,2.2-0.6,4.4-1,6.6c-2,13.3-6.9,25.4-14.7,36.2c-13.1,18.1-30.7,29.7-52.7,33.7
			c-26.8,4.9-50.8-1.6-71.5-19.5c-15.1-13.1-24.4-29.6-27.5-49.3c-4.1-26.1,2.4-49.5,19.7-69.6c12.2-14.1,27.7-22.9,45.9-26.9
			c3.3-0.7,6.7-1.3,10.1-1.4c0.3,0,0.7,0,0.9-0.3c4.4,0,8.8,0,13.2,0c3.8,0.3,7.6,0.5,11.4,1.4c11.4,2.5,21.9,7.1,31.4,13.9
			c12,8.6,21.2,19.6,27.5,33c3.5,7.4,6,15.2,7,23.4c0.3,2.1,0.1,4.2,0.5,6.3C1821.4,262.6,1821.4,266.8,1821.4,270.9z"/>
		<path class="st8" d="M1737.1,344.1c-43.9,0-79.4-35.5-79.4-79.6c0-43.7,35.7-79.4,79.3-79.3c44.2,0.1,79.5,35.5,79.5,79.8
			C1816.5,308.7,1781,344.1,1737.1,344.1z"/>
		<path class="st8" d="M1743.9,286.4c0-1.2,0-2.4,0-3.6c0-1.1,0.2-2.1,1.2-2.7c1.1-0.6,2-0.1,2.9,0.5c3.2,2.3,6.7,3.4,10.6,3.5
			c0.9,0,1.7-0.2,2.6-0.5c1.8-0.7,2-2.1,0.5-3.4c-0.9-0.8-2.1-1.2-3.2-1.7c-2.4-1-4.8-1.9-7-3.2c-5.8-3.4-8.4-8.5-7.5-14.5
			c1-6,5.5-10.7,11.9-11.9c5.3-1,10.6-0.8,15.7,0.9c2.5,0.9,2.9,1.6,2.9,4.3c0,2,0,4.1,0,6.1c0,2.5-1.7,3.5-3.9,2.2
			c-2.7-1.6-5.6-2.5-8.7-2.5c-1.5,0-3.4-0.2-4,1.5c-0.6,1.9,1.4,2.3,2.7,2.9c3,1.5,6.2,2.5,9.1,4.2c3.2,2,5.7,4.5,6.8,8.3
			c2.1,7.2-1.5,14.5-8.7,17.2c-7.3,2.7-14.6,2.3-21.7-0.9c-1.7-0.7-2.4-1.9-2.3-3.7C1744,288.5,1743.9,287.4,1743.9,286.4z"/>
		<path class="st8" d="M1697.1,264.3c0-9,0-18,0-27c0-2.9,0.6-3.6,3.6-3.6c6.1,0,12.2-0.4,18.2-0.1c3.8,0.2,7.4,0.7,10.8,2.3
			c7.2,3.4,11,9.1,11.4,17.1c0.5,11.6-5.8,18.3-17.4,21.1c-3.4,0.8-6.8,1-10.3,0.9c-1.2,0-1.6,0.3-1.6,1.5c0.1,5,0,10,0,15
			c0,2.5-0.8,3.3-3.3,3.3c-2.7,0-5.5,0-8.2,0c-2.3,0-3.2-0.9-3.2-3.4C1697.1,282.5,1697.1,273.4,1697.1,264.3z"/>
		<path class="st8" d="M1770.8,258.1c-3.1-1.3-6.1-2.1-9.3-2c-0.5,0-1,0-1.5,0.1c-3,0.3-5.3,2.2-5.8,4.5c-0.5,2.7,0.6,4.8,3.4,6.4
			c2,1.2,4.2,1.9,6.3,2.8c1.9,0.8,3.8,1.8,5.4,3c5.2,3.9,5.3,11.7,0.2,15.8c-2.6,2.1-5.6,2.9-8.8,3.1c-3.9,0.3-7.7-0.1-11.5-1.5
			c-1.2-0.5-1.8-1-1.6-2.4c0.2-0.9-0.1-1.9,0.3-2.9c3.4,1.8,6.9,2.7,10.7,2.7c1.6,0,3.2-0.3,4.6-1c3.8-1.8,4.5-6.6,1.2-9.4
			c-1.4-1.2-3.1-2.1-4.8-2.7c-2.6-1-5.1-2-7.4-3.6c-6.4-4.4-6-13.7,0.9-17.2c5.4-2.7,11.1-2.3,16.8-0.6c0.5,0.1,0.7,0.4,0.7,0.9
			C1770.8,255.5,1770.8,256.7,1770.8,258.1z"/>
		<path class="st8" d="M1701,264.4c0-8.3,0-16.7,0-25c0-1.4,0.3-1.9,1.8-1.9c6.2,0.1,12.4-0.3,18.6,0.2c7.8,0.6,13.8,5,15.5,11.7
			c2.2,8.8-0.6,16.9-11.1,20.4c-4.7,1.5-9.5,1.6-14.3,1.6c-3.3,0-3.3,0-3.3,3.3c0,4.9,0,9.9,0,14.8c0,1.2-0.2,1.8-1.6,1.7
			c-1.4-0.1-2.7-0.1-4.1,0c-1.3,0.1-1.5-0.4-1.5-1.6C1701,281.2,1700.9,272.8,1701,264.4C1701,264.4,1701,264.4,1701,264.4z"/>
		<path class="st8" d="M1714.6,241.9c1.7,0.1,3.9,0,6,0.4c6.8,1.4,10.6,6.8,9.9,13.7c-0.7,6.5-4.4,9.9-11.9,10.9
			c-3,0.4-6.1,0.3-9.2-0.1c-0.8-0.1-1.2-0.3-1.2-1.3c0-7.5,0-14.9,0-22.4c0-1,0.3-1.3,1.3-1.3C1711,241.9,1712.6,241.9,1714.6,241.9
			z"/>
		<path class="st8" d="M1711.8,254.4c0-2.5,0-4.9,0-7.4c0-1,0.2-1.5,1.3-1.4c2.3,0.1,4.7-0.1,7,0.4c5.9,1.4,8.7,9,4.9,13.8
			c-2.3,2.8-5.6,3.4-9.1,3.5c-4.1,0-4.1,0-4.1-4.2C1711.8,257.4,1711.8,255.9,1711.8,254.4C1711.8,254.4,1711.8,254.4,1711.8,254.4z
			"/>
	</g>
	<g>
		<path class="st9" d="M1602.9,270.5c-0.3,2.2-0.6,4.4-1,6.6c-2,13.3-6.9,25.4-14.7,36.2c-13.1,18.1-30.7,29.7-52.7,33.7
			c-26.8,4.9-50.8-1.6-71.5-19.5c-15.1-13.1-24.4-29.6-27.5-49.3c-4.1-26.1,2.4-49.5,19.7-69.6c12.2-14.1,27.7-22.9,45.9-26.9
			c3.3-0.7,6.7-1.3,10.1-1.4c0.3,0,0.7,0,0.9-0.3c4.4,0,8.8,0,13.2,0c3.8,0.3,7.6,0.5,11.4,1.4c11.4,2.5,21.9,7.1,31.4,13.9
			c12,8.6,21.2,19.6,27.5,33c3.5,7.4,6,15.2,7,23.4c0.3,2.1,0.1,4.2,0.5,6.3C1602.9,262.1,1602.9,266.3,1602.9,270.5z"/>
		<path class="st9" d="M1518.5,343.6c-43.9,0-79.4-35.5-79.4-79.6c0-43.7,35.7-79.4,79.3-79.3c44.2,0.1,79.5,35.5,79.5,79.8
			C1598,308.2,1562.4,343.6,1518.5,343.6z"/>
		<path class="st9" d="M1525.4,285.9c0-1.2,0-2.4,0-3.6c0-1.1,0.2-2.1,1.2-2.7c1.1-0.6,2-0.1,2.9,0.5c3.2,2.3,6.7,3.4,10.6,3.5
			c0.9,0,1.7-0.2,2.6-0.5c1.8-0.7,2-2.1,0.5-3.4c-0.9-0.8-2.1-1.2-3.2-1.7c-2.4-1-4.8-1.9-7-3.2c-5.8-3.4-8.4-8.5-7.5-14.5
			c1-6,5.5-10.7,11.9-11.9c5.3-1,10.6-0.8,15.7,0.9c2.5,0.9,2.9,1.6,2.9,4.3c0,2,0,4.1,0,6.1c0,2.5-1.7,3.5-3.9,2.2
			c-2.7-1.6-5.6-2.5-8.7-2.5c-1.5,0-3.4-0.2-4,1.5c-0.6,1.9,1.4,2.3,2.7,2.9c3,1.5,6.2,2.5,9.1,4.2c3.2,2,5.7,4.5,6.8,8.3
			c2.1,7.2-1.5,14.5-8.7,17.2c-7.3,2.7-14.6,2.3-21.7-0.9c-1.7-0.7-2.4-1.9-2.3-3.7C1525.5,288,1525.4,287,1525.4,285.9z"/>
		<path class="st9" d="M1478.6,263.8c0-9,0-18,0-27c0-2.9,0.6-3.6,3.6-3.6c6.1,0,12.2-0.4,18.2-0.1c3.8,0.2,7.4,0.7,10.8,2.3
			c7.2,3.4,11,9.1,11.4,17.1c0.5,11.6-5.8,18.3-17.4,21.1c-3.4,0.8-6.8,1-10.3,0.9c-1.2,0-1.6,0.3-1.6,1.5c0.1,5,0,10,0,15
			c0,2.5-0.8,3.3-3.3,3.3c-2.7,0-5.5,0-8.2,0c-2.3,0-3.2-0.9-3.2-3.4C1478.6,282,1478.6,272.9,1478.6,263.8z"/>
		<path class="st9" d="M1552.3,257.6c-3.1-1.3-6.1-2.1-9.3-2c-0.5,0-1,0-1.5,0.1c-3,0.3-5.3,2.2-5.8,4.5c-0.5,2.7,0.6,4.8,3.4,6.4
			c2,1.2,4.2,1.9,6.3,2.8c1.9,0.8,3.8,1.8,5.4,3c5.2,3.9,5.3,11.7,0.2,15.8c-2.6,2.1-5.6,2.9-8.8,3.1c-3.9,0.3-7.7-0.1-11.5-1.5
			c-1.2-0.5-1.8-1-1.6-2.4c0.2-0.9-0.1-1.9,0.3-2.9c3.4,1.8,6.9,2.7,10.7,2.7c1.6,0,3.2-0.3,4.6-1c3.8-1.8,4.5-6.6,1.2-9.4
			c-1.4-1.2-3.1-2.1-4.8-2.7c-2.6-1-5.1-2-7.4-3.6c-6.4-4.4-6-13.7,0.9-17.2c5.4-2.7,11.1-2.3,16.8-0.6c0.5,0.1,0.7,0.4,0.7,0.9
			C1552.3,255,1552.3,256.2,1552.3,257.6z"/>
		<path class="st9" d="M1482.5,263.9c0-8.3,0-16.7,0-25c0-1.4,0.3-1.9,1.8-1.9c6.2,0.1,12.4-0.3,18.6,0.2c7.8,0.6,13.8,5,15.5,11.7
			c2.2,8.8-0.6,16.9-11.1,20.4c-4.7,1.5-9.5,1.6-14.3,1.6c-3.3,0-3.3,0-3.3,3.3c0,4.9,0,9.9,0,14.8c0,1.2-0.2,1.8-1.6,1.7
			c-1.4-0.1-2.7-0.1-4.1,0c-1.3,0.1-1.5-0.4-1.5-1.6C1482.4,280.7,1482.4,272.3,1482.5,263.9
			C1482.4,263.9,1482.4,263.9,1482.5,263.9z"/>
		<path class="st9" d="M1496,241.4c1.7,0.1,3.9,0,6,0.4c6.8,1.4,10.6,6.8,9.9,13.7c-0.7,6.5-4.4,9.9-11.9,10.9
			c-3,0.4-6.1,0.3-9.2-0.1c-0.8-0.1-1.2-0.3-1.2-1.3c0-7.5,0-14.9,0-22.4c0-1,0.3-1.3,1.3-1.3C1492.5,241.4,1494,241.4,1496,241.4z"
			/>
		<path class="st9" d="M1493.3,253.9c0-2.5,0-4.9,0-7.4c0-1,0.2-1.5,1.3-1.4c2.3,0.1,4.7-0.1,7,0.4c5.9,1.4,8.7,9,4.9,13.8
			c-2.3,2.8-5.6,3.4-9.1,3.5c-4.1,0-4.1,0-4.1-4.2C1493.3,256.9,1493.3,255.4,1493.3,253.9C1493.3,253.9,1493.3,253.9,1493.3,253.9z
			"/>
	</g>
	<g>
		<path class="st10" d="M1397.1,271.9c-0.3,2.2-0.6,4.4-1,6.6c-2,13.3-6.9,25.4-14.7,36.2c-13.1,18.1-30.7,29.7-52.7,33.7
			c-26.8,4.9-50.8-1.6-71.5-19.5c-15.1-13.1-24.4-29.6-27.5-49.3c-4.1-26.1,2.4-49.5,19.7-69.6c12.2-14.1,27.7-22.9,45.9-26.9
			c3.3-0.7,6.7-1.3,10.1-1.4c0.3,0,0.7,0,0.9-0.3c4.4,0,8.8,0,13.2,0c3.8,0.3,7.6,0.5,11.4,1.4c11.4,2.5,21.9,7.1,31.4,13.9
			c12,8.6,21.2,19.6,27.5,33c3.5,7.4,6,15.2,7,23.4c0.3,2.1,0.1,4.2,0.5,6.3C1397.1,263.5,1397.1,267.7,1397.1,271.9z"/>
		<path class="st10" d="M1312.8,345.1c-43.9,0-79.4-35.5-79.4-79.6c0-43.7,35.7-79.4,79.3-79.3c44.2,0.1,79.5,35.5,79.5,79.8
			C1392.2,309.6,1356.7,345,1312.8,345.1z"/>
		<path class="st10" d="M1319.7,287.3c0-1.2,0-2.4,0-3.6c0-1.1,0.2-2.1,1.2-2.7c1.1-0.6,2-0.1,2.9,0.5c3.2,2.3,6.7,3.4,10.6,3.5
			c0.9,0,1.7-0.2,2.6-0.5c1.8-0.7,2-2.1,0.5-3.4c-0.9-0.8-2.1-1.2-3.2-1.7c-2.4-1-4.8-1.9-7-3.2c-5.8-3.4-8.4-8.5-7.5-14.5
			c1-6,5.5-10.7,11.9-11.9c5.3-1,10.6-0.8,15.7,0.9c2.5,0.9,2.9,1.6,2.9,4.3c0,2,0,4.1,0,6.1c0,2.5-1.7,3.5-3.9,2.2
			c-2.7-1.6-5.6-2.5-8.7-2.5c-1.5,0-3.4-0.2-4,1.5c-0.6,1.9,1.4,2.3,2.7,2.9c3,1.5,6.2,2.5,9.1,4.2c3.2,2,5.7,4.5,6.8,8.3
			c2.1,7.2-1.5,14.5-8.7,17.2c-7.3,2.7-14.6,2.3-21.7-0.9c-1.7-0.7-2.4-1.9-2.3-3.7C1319.7,289.4,1319.7,288.4,1319.7,287.3z"/>
		<path class="st10" d="M1272.8,265.2c0-9,0-18,0-27c0-2.9,0.6-3.6,3.6-3.6c6.1,0,12.2-0.4,18.2-0.1c3.8,0.2,7.4,0.7,10.8,2.3
			c7.2,3.4,11,9.1,11.4,17.1c0.5,11.6-5.8,18.3-17.4,21.1c-3.4,0.8-6.8,1-10.3,0.9c-1.2,0-1.6,0.3-1.6,1.5c0.1,5,0,10,0,15
			c0,2.5-0.8,3.3-3.3,3.3c-2.7,0-5.5,0-8.2,0c-2.3,0-3.2-0.9-3.2-3.4C1272.8,283.5,1272.8,274.4,1272.8,265.2z"/>
		<path class="st10" d="M1346.5,259c-3.1-1.3-6.1-2.1-9.3-2c-0.5,0-1,0-1.5,0.1c-3,0.3-5.3,2.2-5.8,4.5c-0.5,2.7,0.6,4.8,3.4,6.4
			c2,1.2,4.2,1.9,6.3,2.8c1.9,0.8,3.8,1.8,5.4,3c5.2,3.9,5.3,11.7,0.2,15.8c-2.6,2.1-5.6,2.9-8.8,3.1c-3.9,0.3-7.7-0.1-11.5-1.5
			c-1.2-0.5-1.8-1-1.6-2.4c0.2-0.9-0.1-1.9,0.3-2.9c3.4,1.8,6.9,2.7,10.7,2.7c1.6,0,3.2-0.3,4.6-1c3.8-1.8,4.5-6.6,1.2-9.4
			c-1.4-1.2-3.1-2.1-4.8-2.7c-2.6-1-5.1-2-7.4-3.6c-6.4-4.4-6-13.7,0.9-17.2c5.4-2.7,11.1-2.3,16.8-0.6c0.5,0.1,0.7,0.4,0.7,0.9
			C1346.5,256.5,1346.5,257.6,1346.5,259z"/>
		<path class="st10" d="M1276.7,265.3c0-8.3,0-16.7,0-25c0-1.4,0.3-1.9,1.8-1.9c6.2,0.1,12.4-0.3,18.6,0.2c7.8,0.6,13.8,5,15.5,11.7
			c2.2,8.8-0.6,16.9-11.1,20.4c-4.7,1.5-9.5,1.6-14.3,1.6c-3.3,0-3.3,0-3.3,3.3c0,4.9,0,9.9,0,14.8c0,1.2-0.2,1.8-1.6,1.7
			c-1.4-0.1-2.7-0.1-4.1,0c-1.3,0.1-1.5-0.4-1.5-1.6C1276.7,282.1,1276.6,273.7,1276.7,265.3
			C1276.7,265.3,1276.7,265.3,1276.7,265.3z"/>
		<path class="st10" d="M1290.3,242.8c1.7,0.1,3.9,0,6,0.4c6.8,1.4,10.6,6.8,9.9,13.7c-0.7,6.5-4.4,9.9-11.9,10.9
			c-3,0.4-6.1,0.3-9.2-0.1c-0.8-0.1-1.2-0.3-1.2-1.3c0-7.5,0-14.9,0-22.4c0-1,0.3-1.3,1.3-1.3
			C1286.7,242.8,1288.3,242.8,1290.3,242.8z"/>
		<path class="st10" d="M1287.5,255.3c0-2.5,0-4.9,0-7.4c0-1,0.2-1.5,1.3-1.4c2.3,0.1,4.7-0.1,7,0.4c5.9,1.4,8.7,9,4.9,13.8
			c-2.3,2.8-5.6,3.4-9.1,3.5c-4.1,0-4.1,0-4.1-4.2C1287.6,258.4,1287.6,256.8,1287.5,255.3C1287.6,255.3,1287.6,255.3,1287.5,255.3z
			"/>
	</g>
	<g>
		<path class="st11" d="M1188,271.6c-0.3,2.2-0.6,4.4-1,6.6c-2,13.3-6.9,25.4-14.7,36.2c-13.1,18.1-30.7,29.7-52.7,33.7
			c-26.8,4.9-50.8-1.6-71.5-19.5c-15.1-13.1-24.4-29.6-27.5-49.3c-4.1-26.1,2.4-49.5,19.7-69.6c12.2-14.1,27.7-22.9,45.9-26.9
			c3.3-0.7,6.7-1.3,10.1-1.4c0.3,0,0.7,0,0.9-0.3c4.4,0,8.8,0,13.2,0c3.8,0.3,7.6,0.5,11.4,1.4c11.4,2.5,21.9,7.1,31.4,13.9
			c12,8.6,21.2,19.6,27.5,33c3.5,7.4,6,15.2,7,23.4c0.3,2.1,0.1,4.2,0.5,6.3C1188,263.2,1188,267.4,1188,271.6z"/>
		<path class="st11" d="M1103.6,344.7c-43.9,0-79.4-35.5-79.4-79.6c0-43.7,35.7-79.4,79.3-79.3c44.2,0.1,79.5,35.5,79.5,79.8
			C1183.1,309.3,1147.5,344.7,1103.6,344.7z"/>
		<path class="st11" d="M1110.5,287c0-1.2,0-2.4,0-3.6c0-1.1,0.2-2.1,1.2-2.7c1.1-0.6,2-0.1,2.9,0.5c3.2,2.3,6.7,3.4,10.6,3.5
			c0.9,0,1.7-0.2,2.6-0.5c1.8-0.7,2-2.1,0.5-3.4c-0.9-0.8-2.1-1.2-3.2-1.7c-2.4-1-4.8-1.9-7-3.2c-5.8-3.4-8.4-8.5-7.5-14.5
			c1-6,5.5-10.7,11.9-11.9c5.3-1,10.6-0.8,15.7,0.9c2.5,0.9,2.9,1.6,2.9,4.3c0,2,0,4.1,0,6.1c0,2.5-1.7,3.5-3.9,2.2
			c-2.7-1.6-5.6-2.5-8.7-2.5c-1.5,0-3.4-0.2-4,1.5c-0.6,1.9,1.4,2.3,2.7,2.9c3,1.5,6.2,2.5,9.1,4.2c3.2,2,5.7,4.5,6.8,8.3
			c2.1,7.2-1.5,14.5-8.7,17.2c-7.3,2.7-14.6,2.3-21.7-0.9c-1.7-0.7-2.4-1.9-2.3-3.7C1110.6,289.1,1110.5,288,1110.5,287z"/>
		<path class="st11" d="M1063.7,264.9c0-9,0-18,0-27c0-2.9,0.6-3.6,3.6-3.6c6.1,0,12.2-0.4,18.2-0.1c3.8,0.2,7.4,0.7,10.8,2.3
			c7.2,3.4,11,9.1,11.4,17.1c0.5,11.6-5.8,18.3-17.4,21.1c-3.4,0.8-6.8,1-10.3,0.9c-1.2,0-1.6,0.3-1.6,1.5c0.1,5,0,10,0,15
			c0,2.5-0.8,3.3-3.3,3.3c-2.7,0-5.5,0-8.2,0c-2.3,0-3.2-0.9-3.2-3.4C1063.7,283.1,1063.7,274,1063.7,264.9z"/>
		<path class="st11" d="M1137.4,258.7c-3.1-1.3-6.1-2.1-9.3-2c-0.5,0-1,0-1.5,0.1c-3,0.3-5.3,2.2-5.8,4.5c-0.5,2.7,0.6,4.8,3.4,6.4
			c2,1.2,4.2,1.9,6.3,2.8c1.9,0.8,3.8,1.8,5.4,3c5.2,3.9,5.3,11.7,0.2,15.8c-2.6,2.1-5.6,2.9-8.8,3.1c-3.9,0.3-7.7-0.1-11.5-1.5
			c-1.2-0.5-1.8-1-1.6-2.4c0.2-0.9-0.1-1.9,0.3-2.9c3.4,1.8,6.9,2.7,10.7,2.7c1.6,0,3.2-0.3,4.6-1c3.8-1.8,4.5-6.6,1.2-9.4
			c-1.4-1.2-3.1-2.1-4.8-2.7c-2.6-1-5.1-2-7.4-3.6c-6.4-4.4-6-13.7,0.9-17.2c5.4-2.7,11.1-2.3,16.8-0.6c0.5,0.1,0.7,0.4,0.7,0.9
			C1137.4,256.1,1137.4,257.3,1137.4,258.7z"/>
		<path class="st11" d="M1067.6,265c0-8.3,0-16.7,0-25c0-1.4,0.3-1.9,1.8-1.9c6.2,0.1,12.4-0.3,18.6,0.2c7.8,0.6,13.8,5,15.5,11.7
			c2.2,8.8-0.6,16.9-11.1,20.4c-4.7,1.5-9.5,1.6-14.3,1.6c-3.3,0-3.3,0-3.3,3.3c0,4.9,0,9.9,0,14.8c0,1.2-0.2,1.8-1.6,1.7
			c-1.4-0.1-2.7-0.1-4.1,0c-1.3,0.1-1.5-0.4-1.5-1.6C1067.5,281.8,1067.5,273.4,1067.6,265C1067.5,265,1067.6,265,1067.6,265z"/>
		<path class="st11" d="M1081.1,242.5c1.7,0.1,3.9,0,6,0.4c6.8,1.4,10.6,6.8,9.9,13.7c-0.7,6.5-4.4,9.9-11.9,10.9
			c-3,0.4-6.1,0.3-9.2-0.1c-0.8-0.1-1.2-0.3-1.2-1.3c0-7.5,0-14.9,0-22.4c0-1,0.3-1.3,1.3-1.3
			C1077.6,242.5,1079.2,242.5,1081.1,242.5z"/>
		<path class="st11" d="M1078.4,255c0-2.5,0-4.9,0-7.4c0-1,0.2-1.5,1.3-1.4c2.3,0.1,4.7-0.1,7,0.4c5.9,1.4,8.7,9,4.9,13.8
			c-2.3,2.8-5.6,3.4-9.1,3.5c-4.1,0-4.1,0-4.1-4.2C1078.4,258,1078.4,256.5,1078.4,255C1078.4,255,1078.4,255,1078.4,255z"/>
	</g>
	<path class="st12" d="M1099.4,352c-47.5,0-86.1-38.5-86.1-86.1s38.5-86.1,86.1-86.1"/>
	
		<image style="overflow:visible;enable-background:new    ;" width="512" height="512" xlink:href="A2600F58.png"  transform="matrix(0.2719 0 0 0.2719 1034.007 194.6217)">
	</image>
	<path class="st13" d="M1738.8,351.1c-47.5,0-86.1-38.5-86.1-86.1s38.5-86.1,86.1-86.1"/>
	
		<image style="overflow:visible;enable-background:new    ;" width="512" height="512" xlink:href="A2600F59.png"  transform="matrix(0.2719 0 0 0.2719 1667.4669 195.9219)">
	</image>
	<g>
		<path class="st14" d="M1399.9,266.3c0,47.8-38.7,86.5-86.5,86.5c-47.8,0-86.5-38.7-86.5-86.5"/>
		<path class="st14" d="M1313.4,353.4c-48.2,0-87.2-39.1-87.2-87.2s39.1-87.2,87.2-87.2"/>
	</g>
	
		<image style="overflow:visible;enable-background:new    ;" width="512" height="512" xlink:href="A2600F5F.png"  transform="matrix(0.2719 0 0 0.2719 1243.1849 195.9219)">
	</image>
	<g>
		<path class="st15" d="M1605.4,263.2c0,47.8-38.7,86.5-86.5,86.5c-47.8,0-86.5-38.7-86.5-86.5"/>
		<path class="st15" d="M1518.9,350.3c-48.2,0-87.2-39.1-87.2-87.2s39.1-87.2,87.2-87.2"/>
	</g>
	
		<image style="overflow:visible;enable-background:new    ;" width="512" height="512" xlink:href="A2600F5A.png"  transform="matrix(0.2719 0 0 0.2719 1448.9404 195.9219)">
	</image>
	<circle class="st12" cx="1098.4" cy="187.9" r="8"/>
	<circle class="st12" cx="1099.4" cy="343.5" r="8"/>
	<circle class="st14" cx="1313.7" cy="187.4" r="8.5"/>
	<circle class="st14" cx="1390.8" cy="266.4" r="8.5"/>
	<circle class="st15" cx="1520.4" cy="186" r="9.9"/>
	
		<ellipse transform="matrix(0.8477 -0.5304 0.5304 0.8477 103.6574 886.15)" class="st15" cx="1595.3" cy="262.5" rx="10.1" ry="10.1"/>
	<circle class="st13" cx="1737.5" cy="187.4" r="8.5"/>
	<circle class="st13" cx="1738.2" cy="342.8" r="7.8"/>
	<g>
		<path class="st16" d="M984.2,277.3c-0.3,2.2-0.6,4.4-1,6.6c-2,13.3-6.9,25.4-14.7,36.2c-13.1,18.1-30.7,29.7-52.7,33.7
			c-26.8,4.9-50.8-1.6-71.5-19.5c-15.1-13.1-24.4-29.6-27.5-49.3c-4.1-26.1,2.4-49.5,19.7-69.6c12.2-14.1,27.7-22.9,45.9-26.9
			c3.3-0.7,6.7-1.3,10.1-1.4c0.3,0,0.7,0,0.9-0.3c4.4,0,8.8,0,13.2,0c3.8,0.3,7.6,0.5,11.4,1.4c11.4,2.5,21.9,7.1,31.4,13.9
			c12,8.6,21.2,19.6,27.5,33c3.5,7.4,6,15.2,7,23.4c0.3,2.1,0.1,4.2,0.5,6.3C984.2,268.9,984.2,273.1,984.2,277.3z"/>
		<path class="st16" d="M899.9,350.4c-43.9,0-79.4-35.5-79.4-79.6c0-43.7,35.7-79.4,79.3-79.3c44.2,0.1,79.5,35.5,79.5,79.8
			C979.4,315,943.8,350.4,899.9,350.4z"/>
		<path class="st16" d="M906.8,292.7c0-1.2,0-2.4,0-3.6c0-1.1,0.2-2.1,1.2-2.7c1.1-0.6,2-0.1,2.9,0.5c3.2,2.3,6.7,3.4,10.6,3.5
			c0.9,0,1.7-0.2,2.6-0.5c1.8-0.7,2-2.1,0.5-3.4c-0.9-0.8-2.1-1.2-3.2-1.7c-2.4-1-4.8-1.9-7-3.2c-5.8-3.4-8.4-8.5-7.5-14.5
			c1-6,5.5-10.7,11.9-11.9c5.3-1,10.6-0.8,15.7,0.9c2.5,0.9,2.9,1.6,2.9,4.3c0,2,0,4.1,0,6.1c0,2.5-1.7,3.5-3.9,2.2
			c-2.7-1.6-5.6-2.5-8.7-2.5c-1.5,0-3.4-0.2-4,1.5c-0.6,1.9,1.4,2.3,2.7,2.9c3,1.5,6.2,2.5,9.1,4.2c3.2,2,5.7,4.5,6.8,8.3
			c2.1,7.2-1.5,14.5-8.7,17.2c-7.3,2.7-14.6,2.3-21.7-0.9c-1.7-0.7-2.4-1.9-2.3-3.7C906.8,294.8,906.8,293.8,906.8,292.7z"/>
		<path class="st16" d="M859.9,270.6c0-9,0-18,0-27c0-2.9,0.6-3.6,3.6-3.6c6.1,0,12.2-0.4,18.2-0.1c3.8,0.2,7.4,0.7,10.8,2.3
			c7.2,3.4,11,9.1,11.4,17.1c0.5,11.6-5.8,18.3-17.4,21.1c-3.4,0.8-6.8,1-10.3,0.9c-1.2,0-1.6,0.3-1.6,1.5c0.1,5,0,10,0,15
			c0,2.5-0.8,3.3-3.3,3.3c-2.7,0-5.5,0-8.2,0c-2.3,0-3.2-0.9-3.2-3.4C859.9,288.8,859.9,279.7,859.9,270.6z"/>
		<path class="st16" d="M933.6,264.4c-3.1-1.3-6.1-2.1-9.3-2c-0.5,0-1,0-1.5,0.1c-3,0.3-5.3,2.2-5.8,4.5c-0.5,2.7,0.6,4.8,3.4,6.4
			c2,1.2,4.2,1.9,6.3,2.8c1.9,0.8,3.8,1.8,5.4,3c5.2,3.9,5.3,11.7,0.2,15.8c-2.6,2.1-5.6,2.9-8.8,3.1c-3.9,0.3-7.7-0.1-11.5-1.5
			c-1.2-0.5-1.8-1-1.6-2.4c0.2-0.9-0.1-1.9,0.3-2.9c3.4,1.8,6.9,2.7,10.7,2.7c1.6,0,3.2-0.3,4.6-1c3.8-1.8,4.5-6.6,1.2-9.4
			c-1.4-1.2-3.1-2.1-4.8-2.7c-2.6-1-5.1-2-7.4-3.6c-6.4-4.4-6-13.7,0.9-17.2c5.4-2.7,11.1-2.3,16.8-0.6c0.5,0.1,0.7,0.4,0.7,0.9
			C933.6,261.8,933.6,263,933.6,264.4z"/>
		<path class="st16" d="M863.8,270.7c0-8.3,0-16.7,0-25c0-1.4,0.3-1.9,1.8-1.9c6.2,0.1,12.4-0.3,18.6,0.2c7.8,0.6,13.8,5,15.5,11.7
			c2.2,8.8-0.6,16.9-11.1,20.4c-4.7,1.5-9.5,1.6-14.3,1.6c-3.3,0-3.3,0-3.3,3.3c0,4.9,0,9.9,0,14.8c0,1.2-0.2,1.8-1.6,1.7
			c-1.4-0.1-2.7-0.1-4.1,0c-1.3,0.1-1.5-0.4-1.5-1.6C863.8,287.5,863.8,279.1,863.8,270.7C863.8,270.7,863.8,270.7,863.8,270.7z"/>
		<path class="st16" d="M877.4,248.2c1.7,0.1,3.9,0,6,0.4c6.8,1.4,10.6,6.8,9.9,13.7c-0.7,6.5-4.4,9.9-11.9,10.9
			c-3,0.4-6.1,0.3-9.2-0.1c-0.8-0.1-1.2-0.3-1.2-1.3c0-7.5,0-14.9,0-22.4c0-1,0.3-1.3,1.3-1.3C873.8,248.2,875.4,248.2,877.4,248.2z
			"/>
		<path class="st16" d="M874.7,260.7c0-2.5,0-4.9,0-7.4c0-1,0.2-1.5,1.3-1.4c2.3,0.1,4.7-0.1,7,0.4c5.9,1.4,8.7,9,4.9,13.8
			c-2.3,2.8-5.6,3.4-9.1,3.5c-4.1,0-4.1,0-4.1-4.2C874.7,263.8,874.7,262.2,874.7,260.7C874.7,260.7,874.7,260.7,874.7,260.7z"/>
	</g>
	<path class="st17" d="M895.6,357.7c-47.5,0-86.1-38.5-86.1-86.1s38.5-86.1,86.1-86.1"/>
	<circle class="st17" cx="894.7" cy="193.6" r="8"/>
	<circle class="st17" cx="895.6" cy="349.2" r="8"/>
	
		<image style="overflow:visible;" width="512" height="512" xlink:href="../../Alternance/CV/png/003-conception-dadobe.png"  transform="matrix(0.2628 0 0 0.2628 832.0486 203.5359)">
	</image>
</g>
</svg>
