<?xml version="1.0" encoding="utf-8"?>
<!-- Generator: Adobe Illustrator 26.0.3, SVG Export Plug-In . SVG Version: 6.00 Build 0)  -->
<svg version="1.1" id="Calque_1" xmlns="http://www.w3.org/2000/svg" xmlns:xlink="http://www.w3.org/1999/xlink" x="0px" y="0px"
	 viewBox="0 0 1366 768" style="enable-background:new 0 0 1366 768;" xml:space="preserve">
<style type="text/css">
	.st0{fill:#FACBB6;}
</style>
<g>
	<g>
		<path class="st0" d="M725,38.3v417.18H2V44.98c140.62-62.67,236.72,33.93,346.81,95.54C473.29,176.7,624.66,97.87,725,38.3z"/>
		<path class="st0" d="M1364.97,455.43H724.99V38.64c140.35-63.76,237.47,34.87,346.81,97c93.18,30.79,212.41-17.6,293.86-57.14"/>
	</g>
	<g>
		<path class="st0" d="M642.04,736.7V319.52h723v410.51c-140.62,62.67-236.72-33.93-346.81-95.54
			C893.75,598.3,742.38,677.13,642.04,736.7z"/>
		<path class="st0" d="M2.07,319.57h639.98v416.78c-140.35,63.76-237.47-34.87-346.81-97c-93.18-30.79-212.41,17.6-293.86,57.14"/>
	</g>
</g>
</svg>
